<svg xmlns="http://www.w3.org/2000/svg" xmlns:xlink="http://www.w3.org/1999/xlink" width="300" height="90" viewBox="0 0 300 90"><defs><clipPath id="a"><rect x="9.55" y="9.55" width="69.57" height="69.57" style="fill:none"/></clipPath><clipPath id="b"><rect x="9.55" y="14.64" width="46.2" height="29.68" style="fill:none"/></clipPath><clipPath id="c"><rect x="29.09" y="14.42" width="26.32" height="29.96" style="fill:none"/></clipPath><clipPath id="d"><rect x="14.64" y="32.92" width="29.68" height="46.2" style="fill:none"/></clipPath><clipPath id="e"><rect x="14.42" y="33.25" width="29.96" height="26.32" style="fill:none"/></clipPath><clipPath id="f"><rect x="32.92" y="44.35" width="46.19" height="29.68" style="fill:none"/></clipPath><clipPath id="g"><rect x="33.25" y="44.28" width="26.32" height="29.95" style="fill:none"/></clipPath><clipPath id="h"><rect x="44.35" y="9.55" width="29.68" height="46.19" style="fill:none"/></clipPath><clipPath id="i"><rect x="44.28" y="29.09" width="29.95" height="26.32" style="fill:none"/></clipPath><clipPath id="j"><rect x="2.33" y="2.33" width="84" height="84" style="fill:none"/></clipPath><clipPath id="k"><rect x="28.42" y="2.33" width="34.08" height="42.01" style="fill:none"/></clipPath><clipPath id="l"><rect x="44.25" y="10.81" width="18.47" height="33.63" style="fill:none"/></clipPath><clipPath id="m"><rect x="2.33" y="26.17" width="42.01" height="34.08" style="fill:none"/></clipPath><clipPath id="n"><rect x="10.8" y="25.94" width="33.63" height="18.47" style="fill:none"/></clipPath><clipPath id="o"><rect x="26.17" y="44.32" width="34.08" height="42.01" style="fill:none"/></clipPath><clipPath id="p"><rect x="25.95" y="44.23" width="18.47" height="33.62" style="fill:none"/></clipPath><clipPath id="q"><rect x="44.32" y="28.41" width="42.01" height="34.08" style="fill:none"/></clipPath><clipPath id="r"><rect x="44.23" y="44.25" width="33.63" height="18.47" style="fill:none"/></clipPath><clipPath id="s"><rect x="43.82" width="23.2" height="48.03" style="fill:none"/></clipPath><clipPath id="t"><rect x="44.33" y="16.18" width="24.04" height="31.47" style="fill:none"/></clipPath><clipPath id="u"><rect y="21.63" width="48.03" height="23.21" style="fill:none"/></clipPath><clipPath id="v"><rect x="16.18" y="20.29" width="31.47" height="24.04" style="fill:none"/></clipPath><clipPath id="w"><rect x="21.64" y="40.63" width="23.2" height="48.03" style="fill:none"/></clipPath><clipPath id="x"><rect x="20.29" y="41.01" width="24.04" height="31.47" style="fill:none"/></clipPath><clipPath id="y"><rect x="40.63" y="43.82" width="48.03" height="23.21" style="fill:none"/></clipPath><clipPath id="z"><rect x="41.01" y="44.33" width="31.47" height="24.04" style="fill:none"/></clipPath></defs><g style="opacity:0.20000000298023224"><g style="clip-path:url(#a)"><path d="M44.33,44.33,10.65,16.22c19.72-3.92,66.67,6,33.68,28.11" style="fill:#5ab79e"/><g style="opacity:0.800000011920929"><g style="clip-path:url(#b)"><path d="M44,43.84a37.31,37.31,0,0,0,7-5.31,18.21,18.21,0,0,0,3.36-4.26,9,9,0,0,0,1.2-4.19,7.6,7.6,0,0,0-1.2-4c-.23-.37-.07-.14.32.54a7.08,7.08,0,0,1,.88,3.42,9.15,9.15,0,0,1-.33,2.2,12,12,0,0,1-1.08,2.4,10,10,0,0,0,1.38-3.12,7.09,7.09,0,0,0,.11-2.9A8.28,8.28,0,0,0,54,25.33a13.85,13.85,0,0,0-3-2.8,24.94,24.94,0,0,0-3.54-2.06,47.42,47.42,0,0,0-7.65-2.82c-1-.27-2.5-.65-4-1s-3.09-.59-4-.75l1,.16c.65.1,1.58.26,2.69.48a58.6,58.6,0,0,1,8,2.16A31.55,31.55,0,0,1,51,22.36a16.25,16.25,0,0,1,2.13,1.75,7.46,7.46,0,0,1,.72.77c-.14-.17-.28-.35-.43-.5L53,24c-.26-.24-.62-.59-1.1-1a23,23,0,0,0-3.7-2.36,36.7,36.7,0,0,0-4-1.77c-.56-.21-1-.37-1.36-.48l-.52-.18c-.69-.22-1.39-.43-2.11-.64l1.06.31,1,.33a43,43,0,0,1,5.4,2.08,26.52,26.52,0,0,1,3.44,2.06,13.36,13.36,0,0,1,2.24,2l.21.21.43.51c.15.18.28.38.39.53a1.38,1.38,0,0,1,.17.25c.11.15.22.32.33.49v0a9.37,9.37,0,0,0-2.13-2.79A21.63,21.63,0,0,0,47.51,20a46.05,46.05,0,0,0-10-3.45c-2.08-.44-4-.62-6.35-.92-.78-.1-1.43-.22-2-.25h-.67c-1.56-.15-3.12-.36-4.32-.34-.84,0-3.2-.51-3.38-.41-.67.3-.18.06-2.19.07-.25,0-1,.15-1.51.17a25.34,25.34,0,0,0-4,.41l-.62.1-.64.11-1.11.2-1,.17-.11,0H9.53s0,0,0,0l.16.14.33.29,1.39,1.17c.13.1.26.2.39.32l.21.16.16.12.68.5,3.27,2.54c2.29,1.95,3.82,3,5.48,4.68,2.19,1.6,4.81,4.07,7.05,5.89s3.06,2.71,4.91,4.42c.54.48,1,.81,1.26,1.12s1.16.86,1.7,1.34l-.19,0,.72.64c.18.15.12.14.06.12s-.26-.07,0,.23c.74.68,1.5,1.37,2.29,2.06l2.45,1.86a.62.62,0,0,1,.27.09l.74.53c.18.05.2,0,.32,0,.15-.18,1.26.46,1.16.11-.05-.13-1.37-1.26-1.9-1.85-.12-.14.25.08.44.12-.78-.65-.77-.75-.4-.54l-.36-.32.25.07c-1.91-1.73-4-3.73-6-5.27-.42-.33-1.16-.86-1.64-1.22-.25-.17-.72-.63-.9-.79-.37-.22-.38-.11-.58-.16C32,33,29,30.31,28.87,30.61c-1.15-1-1.46-1.06-2.67-2.05l-5.62-4.62c-1.1-.89-2.14-1.77-3.2-2.65l-1.14-.95L13.38,18,12.28,17l-.38-.32-.19-.16-.05,0h.07l.12,0c.34-.07.66-.11,1-.15l.71-.09.84-.09q1.65-.15,3.3-.21a91.18,91.18,0,0,1,13.72.64,54.52,54.52,0,0,1,14.65,3.68A22.9,22.9,0,0,1,52.23,24a10.89,10.89,0,0,1,2.18,2.6,6.88,6.88,0,0,1,1,3,7.45,7.45,0,0,1-.43,3,10.85,10.85,0,0,1-1.29,2.54,20.52,20.52,0,0,1-3.34,3.81,47,47,0,0,1-5.19,4Z" style="fill:#5ab79e"/></g></g><path d="M44.33,44.33C45.76,32.51,41.05,21.65,30.71,15c21.23.7,35,14.93,13.62,29.31" style="fill:#00754b"/><g style="opacity:0.800000011920929"><g style="clip-path:url(#c)"><path d="M44,43.84A30.29,30.29,0,0,0,49.25,40c.48-.48,1-.94,1.45-1.45A16.85,16.85,0,0,0,52,37.05l.56-.74c.18-.24.32-.5.47-.73l.42-.67c.11-.23.22-.44.32-.63a13.67,13.67,0,0,0,.68-1.63c.16-.5.25-.94.35-1.31s.05-.1-.1.46a8.2,8.2,0,0,1-.32,1.07,9.83,9.83,0,0,1-.61,1.41c-.12.23-.23.47-.36.71l-.46.75a17.86,17.86,0,0,1-1.14,1.6,16.07,16.07,0,0,0,2.59-3.92,9.39,9.39,0,0,0,.42-1.3c0-.23.1-.45.16-.67s.05-.46.09-.69a9.83,9.83,0,0,0-.13-3.06L54.72,27c0-.12-.06-.25-.1-.36l-.14-.35-.29-.71-.37-.67a14.46,14.46,0,0,0-4.07-4.46,21.57,21.57,0,0,0-2.6-1.66l-.77-.41c-.26-.12-.51-.25-.75-.35-.47-.24-.89-.43-1.23-.57A25.65,25.65,0,0,1,47,18.6a20.08,20.08,0,0,1,5,3.63A11.43,11.43,0,0,1,55,27.58c.1.41.13.81.19,1.15a6.55,6.55,0,0,1,0,.89,4,4,0,0,1,0,.78,3.91,3.91,0,0,0,0-.48s0-.15,0-.42a5.6,5.6,0,0,0-.07-1.08c0-.22-.07-.46-.11-.72s-.13-.51-.21-.78a4.66,4.66,0,0,0-.28-.82,6.58,6.58,0,0,0-.36-.82l-.42-.79c-.14-.26-.33-.48-.48-.72a12.21,12.21,0,0,0-1-1.2c-.29-.35-.57-.59-.75-.78l-.3-.3c-.4-.35-.82-.71-1.25-1.06l.2.16.43.37.43.36.19.17a14.1,14.1,0,0,1,2.76,3.35,11,11,0,0,1,1.05,2.83c.06.39.1.77.14,1.13s0,.75,0,1.11a1.4,1.4,0,0,1,0,.23c0,.13,0,.31,0,.48l-.08.71-.09.43h0a3.88,3.88,0,0,0,.23-.89c0-.23.07-.48.11-.76s0-.6,0-.94a10,10,0,0,0-1.26-4.6A14.08,14.08,0,0,0,51,20.76,16.42,16.42,0,0,0,48.47,19a26.92,26.92,0,0,0-4.42-1.88,9.49,9.49,0,0,0-1.44-.51,4.37,4.37,0,0,1-.5-.09A21,21,0,0,0,39,15.64c-.61-.14-2.27-.85-2.42-.8-.54.23-.15.06-1.62-.17-.08,0-1,0-1.49,0a36.92,36.92,0,0,0-4.2-.21h-.18s0,0,0,0l.23.16.4.28.67.48,1,.78c.33.24.7.54,1.1.83l.67.47.27.18.27.18c.1.05.68.53,1.24,1,.28.24.56.46.76.65l.32.31,1,1.09c.31.35.58.68.85,1a10.4,10.4,0,0,1,1.37,2,9.17,9.17,0,0,1,.91,1.3l.43.73c.14.25.26.52.38.79.53,1,.92,2.16,1.33,3.13.18.49.31.92.43,1.31.06.2.11.38.16.56s.07.36.11.54c.11.7.25,1.36.33,2.28.07.52.16.91.17,1.21s.19,1,.23,1.55l-.1-.12c0,.17,0,.52.05.69s0,.13-.06.09-.12-.17-.15.14c0,.73,0,1.46,0,2.21l0,1.12c0,.37,0,.74,0,1.1a.37.37,0,0,1,.09.2v.65c.07.14.16.1.21.2.23,0,.37,1,.6.77.07-.08.2-1.36.36-1.94,0-.13.1.18.17.33.07-.77.14-.81.2-.49,0-.18,0-.36,0-.36l.1.18a22,22,0,0,0,0-6.07A13.41,13.41,0,0,0,45,34.48c-.06-.22-.1-.73-.13-.91s-.22-.23-.33-.34c-.2-1.4-1-4.37-1.33-4.16a10.5,10.5,0,0,0-.53-1.13l-.26-.49c-.1-.17-.22-.38-.35-.64s-.38-.71-.57-1.1-.46-.76-.7-1.16c-.46-.81-1.07-1.58-1.62-2.38l-1-1.21c-.17-.2-.32-.4-.5-.6l-.53-.55L36.35,19c-.34-.34-.7-.65-1-1s-.67-.64-1-.91l-.77-.62a6.14,6.14,0,0,0-.59-.45l-.56-.4c-.19-.09,0,0,.16,0l.35,0c.46,0,1,.09,1.44.14.16,0,.67.09,1,.14s.81.11,1.21.18c.8.15,1.61.28,2.41.47A39.73,39.73,0,0,1,44,18a23.75,23.75,0,0,1,5,2.45,14.92,14.92,0,0,1,4,3.77,9.42,9.42,0,0,1,1.78,4.9,10.34,10.34,0,0,1-1,4.77,19.59,19.59,0,0,1-5.09,6.34c-.44.36-.83.71-1.22,1L46.37,42c-.65.5-1.21.84-1.58,1.1Z" style="fill:#00754b"/></g></g><path d="M44.33,44.33,16.22,78c-3.92-19.72,6-66.68,28.11-33.68" style="fill:#79b320"/><g style="opacity:0.800000011920929"><g style="clip-path:url(#d)"><path d="M43.83,44.66a36.84,36.84,0,0,0-5.3-7,18.41,18.41,0,0,0-4.26-3.36,9,9,0,0,0-4.19-1.2,7.6,7.6,0,0,0-4,1.2c-.37.23-.14.07.54-.33a7.15,7.15,0,0,1,3.42-.87,8.54,8.54,0,0,1,2.19.33,12.37,12.37,0,0,1,2.41,1.07,10.57,10.57,0,0,0-3.13-1.38,7.21,7.21,0,0,0-2.89-.1,8.37,8.37,0,0,0-3.34,1.61,14.35,14.35,0,0,0-2.79,3,24.45,24.45,0,0,0-2.06,3.53,47.52,47.52,0,0,0-2.82,7.66c-.27,1-.65,2.49-1,4s-.59,3.09-.75,4c0,0,.05-.37.16-1s.26-1.58.48-2.69a61.62,61.62,0,0,1,2.16-8,31.77,31.77,0,0,1,3.64-7.48,15.41,15.41,0,0,1,1.74-2.13c.24-.25.5-.49.77-.72-.17.14-.35.28-.5.43l-.4.39c-.23.26-.58.62-.95,1.09a22.88,22.88,0,0,0-2.37,3.71,36.7,36.7,0,0,0-1.77,4c-.2.56-.37,1-.48,1.36s-.18.52-.18.52c-.22.69-.43,1.38-.64,2.1,0,0,.15-.52.31-1.05s.33-1,.33-1A42,42,0,0,1,20.32,41a24.56,24.56,0,0,1,2.06-3.45,12.86,12.86,0,0,1,2-2.23l.21-.21.51-.43c.18-.15.39-.29.53-.4a2,2,0,0,1,.25-.17l.49-.32h0a9.3,9.3,0,0,0-2.79,2.12A21.92,21.92,0,0,0,20,41.14a46.05,46.05,0,0,0-3.45,10c-.44,2.08-.62,4-.92,6.35-.1.78-.22,1.43-.25,2,0,.22,0,.44,0,.67a41.67,41.67,0,0,0-.34,4.32c0,.85-.51,3.2-.41,3.38.29.67.06.18.08,2.19,0,.24.15,1,.16,1.51a25.46,25.46,0,0,0,.41,4c0,.22.07.42.1.62s.08.43.11.64c.07.4.14.77.2,1.11s.12.67.17,1l0,.12v.06s0,0,0,0l.15-.17.29-.33c.37-.43.75-.88,1.16-1.39l.32-.39.17-.2.12-.16.49-.68,2.55-3.27c1.94-2.29,3-3.82,4.68-5.48,1.59-2.19,4.07-4.82,5.89-7.05s2.7-3.06,4.42-4.92c.47-.54.81-1,1.11-1.26s.87-1.15,1.34-1.69l-.05.19.64-.72c.16-.18.14-.12.12-.05s-.07.25.23,0c.68-.74,1.37-1.5,2.06-2.29l1.86-2.45a1.07,1.07,0,0,1,.09-.27l.53-.74c.06-.19,0-.19,0-.32-.18-.15.45-1.26.1-1.16-.13.05-1.26,1.37-1.84,1.9-.14.12.07-.25.12-.44-.65.78-.76.77-.55.4l-.32.36c0-.06.07-.25.07-.25-1.73,1.91-3.73,4-5.26,6-.34.43-.87,1.16-1.22,1.64-.18.25-.64.73-.8.9-.21.38-.1.39-.15.57C33,56.69,30.3,59.69,30.6,59.78c-1,1.15-1.05,1.46-2.05,2.67l-4.62,5.62c-.89,1.1-1.76,2.14-2.64,3.19l-.95,1.14L18,75.27,17,76.37l-.32.38-.16.19,0,0v-.06l0-.12c-.06-.34-.1-.66-.14-1s-.07-.48-.09-.72l-.09-.83c-.1-1.11-.18-2.2-.21-3.31a91,91,0,0,1,.64-13.71A54.52,54.52,0,0,1,20.25,42.6,23.05,23.05,0,0,1,24,36.42a10.85,10.85,0,0,1,2.6-2.17,6.75,6.75,0,0,1,3-1,7.45,7.45,0,0,1,3,.43A10.48,10.48,0,0,1,35.1,35a20.52,20.52,0,0,1,3.81,3.34,48.32,48.32,0,0,1,4,5.19Z" style="fill:#79b320"/></g></g><path d="M44.33,44.33C32.51,42.9,21.65,47.61,15,57.94c.71-21.22,14.94-35,29.32-13.61" style="fill:#119c2f"/><g style="opacity:0.800000011920929"><g style="clip-path:url(#e)"><path d="M43.84,44.66A30.82,30.82,0,0,0,40,39.41c-.48-.48-.95-1-1.45-1.45s-1-.93-1.51-1.29l-.74-.56c-.24-.18-.5-.32-.73-.47l-.68-.42-.62-.32a13.81,13.81,0,0,0-1.64-.68c-.49-.17-.93-.25-1.3-.36s-.11,0,.45.11a5.82,5.82,0,0,1,1.08.32,9.68,9.68,0,0,1,1.41.61l.71.36.74.46a19.58,19.58,0,0,1,1.61,1.14,16.07,16.07,0,0,0-3.92-2.59,8.33,8.33,0,0,0-1.31-.42l-.67-.16c-.22,0-.46-.06-.69-.09a9.53,9.53,0,0,0-3.06.13l-.73.2-.37.11-.35.14-.7.29-.67.36a14.38,14.38,0,0,0-4.46,4.08,20.1,20.1,0,0,0-1.66,2.6c-.14.26-.28.51-.41.77s-.25.5-.36.74c-.23.47-.42.9-.56,1.23a25.48,25.48,0,0,1,1.18-2.54,20.13,20.13,0,0,1,3.63-5,11.61,11.61,0,0,1,5.35-3.06c.42-.1.81-.13,1.15-.18s.6,0,.9,0a5.08,5.08,0,0,1,.78,0,4,4,0,0,0-.49,0h-.41a5.71,5.71,0,0,0-1.09.07l-.71.1-.79.21a5,5,0,0,0-.82.29,6.58,6.58,0,0,0-.82.36l-.79.42c-.26.14-.48.33-.72.48a12.21,12.21,0,0,0-1.2.95,9.9,9.9,0,0,0-.78.75l-.29.29c-.35.41-.71.82-1.06,1.26a1.49,1.49,0,0,1,.15-.2c.11-.12.24-.28.37-.44s.27-.31.36-.43a1.84,1.84,0,0,1,.18-.19,13.63,13.63,0,0,1,3.35-2.75,10.63,10.63,0,0,1,2.83-1.06c.39-.06.76-.1,1.13-.14s.74,0,1.11,0h.22l.49.05.71.08.43.09h0a3.76,3.76,0,0,0-.89-.23l-.76-.12-.94,0a10,10,0,0,0-4.6,1.27,14,14,0,0,0-3.79,3.16,16.33,16.33,0,0,0-1.8,2.5,27.44,27.44,0,0,0-1.89,4.43,9.24,9.24,0,0,0-.51,1.45,4.21,4.21,0,0,1-.09.49,20.81,20.81,0,0,0-.84,3.12c-.13.6-.84,2.26-.8,2.41.23.54.07.15-.17,1.62,0,.08,0,1,0,1.5a34.49,34.49,0,0,0-.22,4.19v.18s0,0,0,0l.15-.23.28-.4c.18-.24.34-.46.48-.67l.79-1c.24-.33.53-.7.82-1.1l.47-.67.19-.27.17-.27c.05-.1.54-.68,1-1.24.24-.28.47-.56.65-.76l.31-.31,1.09-1c.35-.31.69-.58,1-.85a10,10,0,0,1,2-1.37,8.36,8.36,0,0,1,1.3-.9l.73-.43c.25-.15.52-.26.79-.39,1-.53,2.16-.92,3.13-1.33l1.31-.43.56-.15.54-.11a22.38,22.38,0,0,1,2.29-.33c.51-.07.89-.16,1.2-.17s1-.19,1.55-.23l-.12.1.69,0c.17,0,.14,0,.09.06s-.16.11.14.14c.73,0,1.46,0,2.22,0l1.11,0c.37,0,.73,0,1.1,0a.4.4,0,0,1,.2-.08h.65c.14-.08.1-.17.2-.21,0-.23,1-.38.77-.6S43,44,42.41,43.8c-.13,0,.18-.09.32-.16-.76-.07-.8-.15-.48-.21l-.36,0,.18-.11a22,22,0,0,0-6.07,0,11.52,11.52,0,0,0-1.52.35,8.13,8.13,0,0,1-.9.13c-.31.13-.24.22-.35.33-1.4.21-4.36,1-4.15,1.34a9.81,9.81,0,0,0-1.14.53l-.49.26c-.18.09-.38.22-.63.35l-1.11.57-1.15.7a27.77,27.77,0,0,0-2.38,1.62c-.42.33-.82.67-1.22,1-.19.17-.4.32-.59.5l-.56.53L19,52.3c-.34.34-.65.7-1,1s-.64.67-.91,1l-.62.77a5.63,5.63,0,0,0-.44.59c-.14.19-.27.38-.41.56s0,0,0-.15l0-.36c0-.46.09-1,.14-1.43,0-.17.09-.68.15-1.05s.1-.81.17-1.21c.16-.79.28-1.61.48-2.42a38.38,38.38,0,0,1,1.42-5,23.75,23.75,0,0,1,2.45-5,15.07,15.07,0,0,1,3.77-4,9.32,9.32,0,0,1,4.9-1.77,10,10,0,0,1,4.76,1A19.37,19.37,0,0,1,40.22,40c.36.43.71.83,1,1.21s.56.75.81,1.08c.5.65.84,1.21,1.1,1.58Z" style="fill:#119c2f"/></g></g><path d="M44.33,44.33,78,72.44c-19.72,3.92-66.67-6-33.68-28.11" style="fill:#0076a9"/><g style="opacity:0.800000011920929"><g style="clip-path:url(#f)"><path d="M44.66,44.83a36.53,36.53,0,0,0-7,5.3,18.41,18.41,0,0,0-3.36,4.26,9.1,9.1,0,0,0-1.2,4.19,7.6,7.6,0,0,0,1.2,4c.23.37.07.14-.32-.54a7.05,7.05,0,0,1-.88-3.42,9.15,9.15,0,0,1,.33-2.2A12,12,0,0,1,34.51,54a10,10,0,0,0-1.39,3.12A7.27,7.27,0,0,0,33,60a8.26,8.26,0,0,0,1.61,3.33,14.44,14.44,0,0,0,3,2.81,26.38,26.38,0,0,0,3.53,2A47.52,47.52,0,0,0,48.85,71c1,.27,2.49.65,4,1s3.08.59,4,.75l-1-.16c-.65-.1-1.58-.26-2.69-.48a61.62,61.62,0,0,1-8-2.16,31.87,31.87,0,0,1-7.47-3.63,16.25,16.25,0,0,1-2.13-1.75,7.46,7.46,0,0,1-.72-.77,5.15,5.15,0,0,0,.43.5l.38.4c.26.23.62.59,1.1.95A22.37,22.37,0,0,0,40.47,68a42.25,42.25,0,0,0,4,1.77l1.35.48.52.18,2.11.64-1.06-.31-1-.33A43.51,43.51,0,0,1,41,68.34a24.45,24.45,0,0,1-3.44-2.06,13.3,13.3,0,0,1-2.24-2,2.09,2.09,0,0,1-.2-.22l-.44-.5c-.15-.19-.28-.39-.4-.53a2.13,2.13,0,0,1-.16-.25l-.33-.5v0a9.42,9.42,0,0,0,2.13,2.8,21.72,21.72,0,0,0,5.25,3.54,47,47,0,0,0,10,3.45c2.08.43,4,.61,6.35.91.78.1,1.43.23,2,.25a5,5,0,0,1,.67,0c1.55.14,3.11.36,4.32.33.84,0,3.2.51,3.38.42.67-.3.18-.07,2.19-.08.24,0,1-.15,1.51-.16a25.48,25.48,0,0,0,4-.42l.62-.1.63-.11L78,73l1-.18.11,0h.06l0,0-.16-.15-.33-.28-1.39-1.17-.4-.32-.2-.17a1.67,1.67,0,0,1-.16-.12L75.77,70,72.5,67.46c-2.29-1.94-3.82-3-5.48-4.68-2.19-1.59-4.82-4.06-7-5.88s-3.06-2.71-4.92-4.42c-.54-.48-1-.81-1.26-1.12S52.64,50.49,52.1,50l.19,0-.72-.63c-.18-.17-.12-.15,0-.13s.25.07-.05-.23c-.73-.67-1.5-1.36-2.29-2l-2.45-1.87a.62.62,0,0,1-.27-.09l-.74-.53c-.18,0-.19.06-.32,0-.15.18-1.26-.46-1.16-.1,0,.12,1.37,1.26,1.9,1.84.13.14-.25-.07-.44-.12.78.65.77.76.4.55l.36.31L46.21,47c1.92,1.73,4,3.73,6,5.27.43.34,1.16.86,1.64,1.22.25.17.72.63.91.79.37.21.38.11.57.16,1.37,1.26,4.37,3.94,4.46,3.64,1.15,1,1.47,1.06,2.67,2.05l5.62,4.62c1.1.89,2.14,1.77,3.19,2.65l1.15.95,2.86,2.39,1.1.92.38.33.19.16,0,0h-.07l-.12,0-1,.15-.72.09-.83.08c-1.11.1-2.21.18-3.3.22a91.12,91.12,0,0,1-13.72-.65,54.5,54.5,0,0,1-14.65-3.67,22.83,22.83,0,0,1-6.18-3.74,10.57,10.57,0,0,1-2.17-2.59,6.79,6.79,0,0,1-1-3,7.5,7.5,0,0,1,.43-3A10.63,10.63,0,0,1,35,53.55a20.88,20.88,0,0,1,3.34-3.8,48,48,0,0,1,5.19-4Z" style="fill:#0076a9"/></g></g><path d="M44.33,44.33C42.9,56.15,47.61,67,58,73.64c-21.23-.7-35-14.93-13.62-29.31" style="fill:#004064"/><g style="opacity:0.800000011920929"><g style="clip-path:url(#g)"><path d="M44.66,44.83a30.23,30.23,0,0,0-5.25,3.82c-.48.48-1,1-1.46,1.45a19.36,19.36,0,0,0-1.28,1.51l-.56.74c-.18.25-.31.5-.47.73s-.29.46-.42.68l-.31.62A12.38,12.38,0,0,0,34.22,56c-.16.49-.24.94-.35,1.3s0,.1.11-.45a6.67,6.67,0,0,1,.31-1.08,10.4,10.4,0,0,1,.62-1.41c.11-.23.23-.47.36-.71l.45-.74c.35-.56.74-1.09,1.14-1.61a16.26,16.26,0,0,0-2.59,3.92,8.52,8.52,0,0,0-.41,1.3c-.06.23-.11.46-.16.68a5.43,5.43,0,0,0-.09.69A9.46,9.46,0,0,0,33.73,61l.21.74c0,.13.06.25.1.37l.15.35.29.7.36.67a14.47,14.47,0,0,0,4.07,4.46,20.4,20.4,0,0,0,2.6,1.66l.77.41.74.36c.48.23.91.43,1.24.56a24.49,24.49,0,0,1-2.55-1.18,20.06,20.06,0,0,1-5-3.63,11.52,11.52,0,0,1-3.06-5.35c-.1-.41-.13-.8-.19-1.15a8.7,8.7,0,0,1,0-.89,4.07,4.07,0,0,1,0-.78,2.61,2.61,0,0,0-.05.48s0,.16,0,.42a5.6,5.6,0,0,0,.07,1.08c0,.22.07.46.1.72s.14.51.21.78a4.7,4.7,0,0,0,.29.82,7.48,7.48,0,0,0,.35.82l.43.79c.15.26.33.48.48.72a12.21,12.21,0,0,0,.95,1.2,8.39,8.39,0,0,0,.75.78l.29.3c.41.35.82.71,1.26,1.06a1.56,1.56,0,0,1-.2-.16L38,67.7l-.43-.36-.19-.17a13.91,13.91,0,0,1-2.75-3.36,10.09,10.09,0,0,1-1-2.82c-.07-.39-.1-.77-.14-1.14s0-.74,0-1.11v-.22c0-.13,0-.31.05-.49,0-.35.09-.7.09-.7s.05-.29.08-.44v0a3.41,3.41,0,0,0-.22.89c0,.22-.08.48-.12.76s0,.6,0,.94a9.93,9.93,0,0,0,1.27,4.6,14.19,14.19,0,0,0,3.15,3.79,15.76,15.76,0,0,0,2.51,1.8,25.34,25.34,0,0,0,4.42,1.89A10.77,10.77,0,0,0,46,72.1a2.1,2.1,0,0,1,.5.09,22.28,22.28,0,0,0,3.11.83c.61.13,2.27.85,2.42.8.54-.23.14-.06,1.62.17.08,0,1,0,1.5,0a36.63,36.63,0,0,0,4.19.21h.18s0,0,0,0l-.22-.15-.41-.28c-.24-.18-.46-.34-.67-.48l-1-.79-1.1-.82-.67-.47L55.14,71l-.27-.17c-.1,0-.68-.53-1.24-1-.28-.24-.56-.46-.76-.64l-.31-.31c-.37-.41-.72-.76-1-1.1s-.58-.68-.85-1a10.4,10.4,0,0,1-1.37-2,8.36,8.36,0,0,1-.9-1.3L48,62.73c-.14-.25-.26-.52-.38-.78-.53-1.05-.92-2.17-1.33-3.14-.17-.49-.31-.92-.43-1.31,0-.2-.11-.38-.16-.56s-.07-.36-.1-.54a22.57,22.57,0,0,1-.33-2.28,12.2,12.2,0,0,1-.17-1.21c0-.31-.19-1-.23-1.55l.09.12,0-.69c0-.17,0-.14.06-.09s.11.16.14-.14c0-.73,0-1.46,0-2.22,0-.37,0-.74,0-1.1s0-.74,0-1.11a.41.41,0,0,1-.08-.19v-.66c-.07-.14-.16-.11-.2-.2-.24,0-.38-1-.6-.77s-.21,1.37-.37,1.94c0,.14-.09-.19-.16-.32-.08.76-.15.8-.21.48,0,.18,0,.36,0,.36a2,2,0,0,0-.1-.18,22,22,0,0,0,0,6.07,13.41,13.41,0,0,0,.36,1.52c.06.22.1.73.13.9s.22.24.33.35c.2,1.4,1,4.36,1.33,4.15A9.88,9.88,0,0,0,46,60.72l.25.49c.11.17.22.38.36.64L47.2,63c.21.37.46.76.7,1.16a26.92,26.92,0,0,0,1.62,2.37l1,1.22c.17.19.32.4.5.59l.52.56.77.81c.34.34.7.65,1,1s.67.65,1,.92l.77.62c.19.16.39.3.59.44l.56.4c.18.1,0,0-.15,0l-.36,0c-.46,0-1-.09-1.44-.14-.16,0-.67-.09-1-.14s-.81-.1-1.21-.18c-.8-.15-1.61-.27-2.41-.47a37.69,37.69,0,0,1-5-1.43,23,23,0,0,1-5-2.45,14.77,14.77,0,0,1-4-3.77,9.33,9.33,0,0,1-1.78-4.9,10.27,10.27,0,0,1,1-4.76A19.74,19.74,0,0,1,40,48.43c.43-.36.83-.71,1.22-1s.75-.56,1.08-.8c.65-.51,1.21-.84,1.58-1.11Z" style="fill:#004064"/></g></g><path d="M44.33,44.33,72.44,10.65c3.92,19.72-6,66.67-28.11,33.68" style="fill:#1b9bd3"/><g style="opacity:0.800000011920929"><g style="clip-path:url(#h)"><path d="M44.83,44a36.91,36.91,0,0,0,5.3,7,18.64,18.64,0,0,0,4.26,3.35,9,9,0,0,0,4.19,1.2,7.66,7.66,0,0,0,4-1.2l-.54.33a7.18,7.18,0,0,1-3.42.87,8.68,8.68,0,0,1-2.2-.33A12.56,12.56,0,0,1,54,54.16a10.45,10.45,0,0,0,3.13,1.38,7.21,7.21,0,0,0,2.89.1A8.26,8.26,0,0,0,63.33,54a14.13,14.13,0,0,0,2.8-3,24.94,24.94,0,0,0,2.06-3.54A47.07,47.07,0,0,0,71,39.81c.27-1,.65-2.5,1-4s.59-3.09.75-4c0,0-.06.37-.16,1s-.26,1.59-.48,2.7a61.62,61.62,0,0,1-2.16,8A31.87,31.87,0,0,1,66.3,51a16.34,16.34,0,0,1-1.75,2.14c-.24.25-.5.49-.77.72.17-.15.35-.28.5-.44l.4-.38c.23-.26.59-.62.95-1.1A22.37,22.37,0,0,0,68,48.19a38.73,38.73,0,0,0,1.77-4c.2-.56.37-1,.48-1.36l.18-.52c.21-.69.43-1.38.64-2.11l-.32,1.06c-.15.52-.32,1-.32,1a43.51,43.51,0,0,1-2.09,5.39,24.56,24.56,0,0,1-2.06,3.45,12.86,12.86,0,0,1-2,2.23,2.18,2.18,0,0,1-.22.21c-.13.12-.31.28-.5.43s-.39.29-.53.4a2.2,2.2,0,0,1-.25.17l-.5.33h0a9.42,9.42,0,0,0,2.8-2.13,21.78,21.78,0,0,0,3.54-5.26,46.51,46.51,0,0,0,3.45-10c.43-2.09.61-4,.91-6.35.11-.78.23-1.44.26-2a3.75,3.75,0,0,1,0-.67,41.84,41.84,0,0,0,.33-4.33c0-.84.51-3.19.42-3.38-.3-.66-.07-.18-.08-2.18,0-.24-.15-1-.16-1.51a25.22,25.22,0,0,0-.42-4c0-.22-.06-.43-.1-.62s-.07-.44-.11-.64c-.07-.41-.13-.77-.2-1.12s-.11-.67-.17-1l0-.11V9.55s0,0,0,0l-.15.17-.28.32c-.38.44-.76.88-1.17,1.39l-.32.4-.17.21a1.58,1.58,0,0,1-.12.15L70,12.9l-2.54,3.27c-2,2.29-3,3.82-4.69,5.48-1.59,2.19-4.06,4.82-5.89,7.05s-2.7,3.06-4.41,4.92c-.48.53-.82,1-1.12,1.26S50.49,36,50,36.57l0-.19-.63.72c-.16.18-.14.12-.13,0s.07-.25-.23.05c-.67.74-1.36,1.5-2,2.3l-1.87,2.44a.62.62,0,0,1-.09.27l-.52.74c-.06.19.05.2,0,.32.18.15-.46,1.26-.1,1.17.12-.06,1.26-1.38,1.84-1.91.14-.12-.07.25-.12.44.65-.78.76-.77.55-.4l.31-.36c0,.06-.06.25-.06.25,1.73-1.92,3.72-4,5.26-6,.34-.43.87-1.16,1.22-1.65.18-.24.64-.71.8-.89.21-.37.1-.39.16-.57C55.67,32,58.36,29,58.06,28.88c1-1.15,1-1.47,2-2.67l4.63-5.62c.89-1.1,1.76-2.14,2.64-3.19l.95-1.14,2.4-2.87.92-1.1.32-.38.17-.18,0-.05v.06l0,.12c.06.34.11.66.15,1l.09.72c0,.28,0,.55.08.83.1,1.1.18,2.2.21,3.3a91.18,91.18,0,0,1-.64,13.72,54.71,54.71,0,0,1-3.67,14.64,23.19,23.19,0,0,1-3.74,6.18,10.85,10.85,0,0,1-2.6,2.18,6.88,6.88,0,0,1-3,1,7.42,7.42,0,0,1-3-.43,11.11,11.11,0,0,1-2.55-1.29,20.79,20.79,0,0,1-3.8-3.34,46.88,46.88,0,0,1-4-5.18Z" style="fill:#1b9bd3"/></g></g><path d="M44.33,44.33C56.15,45.76,67,41.05,73.64,30.71c-.7,21.23-14.93,35-29.31,13.62" style="fill:#005790"/><g style="opacity:0.800000011920929"><g style="clip-path:url(#i)"><path d="M44.82,44a30.29,30.29,0,0,0,3.83,5.25c.48.48,1,1,1.44,1.46s1,.92,1.52,1.28l.74.56c.24.19.5.32.73.47l.68.42.62.32a13.81,13.81,0,0,0,1.64.68c.49.16.93.25,1.3.35s.1.05-.46-.1a6.9,6.9,0,0,1-1.07-.32,9.83,9.83,0,0,1-1.41-.61l-.71-.36-.75-.46a17.86,17.86,0,0,1-1.6-1.14,16.07,16.07,0,0,0,3.92,2.59,8.52,8.52,0,0,0,1.3.41l.68.17c.22.05.46.05.69.09A9.75,9.75,0,0,0,61,54.93l.74-.2.37-.11.34-.14.71-.29.67-.37a14.58,14.58,0,0,0,4.46-4.07,20.1,20.1,0,0,0,1.66-2.6l.41-.77c.13-.25.24-.5.36-.74.23-.47.42-.91.56-1.23A25.48,25.48,0,0,1,70.06,47a20.32,20.32,0,0,1-3.63,5A11.6,11.6,0,0,1,61.08,55c-.41.1-.81.13-1.15.19a6.62,6.62,0,0,1-.89,0,4.07,4.07,0,0,1-.78,0,3.88,3.88,0,0,0,.48,0h.41a5,5,0,0,0,1.09-.07l.72-.1.78-.21a4.7,4.7,0,0,0,.82-.29,7.48,7.48,0,0,0,.82-.35l.79-.43a7.5,7.5,0,0,0,.72-.48,13.65,13.65,0,0,0,1.21-1c.34-.28.58-.57.77-.75s.29-.29.29-.29c.36-.41.72-.82,1.07-1.26a1.56,1.56,0,0,1-.16.2l-.36.44-.38.43a1.54,1.54,0,0,1-.17.19,13.45,13.45,0,0,1-3.35,2.75A10.56,10.56,0,0,1,61,55.14c-.39.06-.77.1-1.14.14s-.74,0-1.11,0a.81.81,0,0,1-.22,0l-.49,0-.71-.08L56.89,55h0a3.76,3.76,0,0,0,.89.23l.76.11.93,0a10.18,10.18,0,0,0,4.61-1.27A14,14,0,0,0,67.89,51a16.42,16.42,0,0,0,1.8-2.51,27,27,0,0,0,1.89-4.42,12.31,12.31,0,0,0,.51-1.44,2.19,2.19,0,0,1,.09-.5A22,22,0,0,0,73,39c.14-.6.85-2.26.81-2.41-.24-.53-.07-.14.16-1.61,0-.09,0-1,0-1.5a36.63,36.63,0,0,0,.21-4.19V29.1s0,0,0,0l-.16.22-.28.41-.48.66-.78,1.06c-.24.32-.54.69-.83,1.1-.15.2-.3.42-.47.66l-.18.27-.18.28c0,.1-.53.68-1,1.24-.24.27-.46.55-.65.75l-.3.32c-.41.37-.77.72-1.1,1s-.68.58-1,.85a10.87,10.87,0,0,1-2,1.37,9.7,9.7,0,0,1-1.3.9l-.73.44-.78.38c-1,.53-2.17.92-3.14,1.32-.49.18-.92.32-1.31.44l-.56.16-.54.1a21.75,21.75,0,0,1-2.28.33,12.2,12.2,0,0,1-1.21.17c-.3,0-1,.19-1.54.23l.12-.1-.7,0c-.17,0-.13,0-.09,0s.17-.12-.14-.15c-.72,0-1.46,0-2.21,0l-1.11,0c-.37,0-.73,0-1.1,0a.72.72,0,0,1-.2.09h-.65c-.14.07-.1.16-.2.2,0,.24-1,.37-.77.61.08.06,1.37.2,1.94.36.13,0-.19.09-.33.16.77.07.81.15.49.21l.36,0-.19.11a22.11,22.11,0,0,0,6.08,0A13.41,13.41,0,0,0,54.18,45a7.81,7.81,0,0,1,.9-.13c.3-.13.23-.22.35-.33,1.39-.21,4.36-1,4.14-1.33a11.79,11.79,0,0,0,1.14-.53l.49-.27.64-.35,1.1-.57c.38-.21.76-.46,1.16-.7.81-.46,1.58-1.07,2.38-1.62l1.21-1c.2-.17.4-.32.59-.5l.56-.53.81-.76c.34-.34.65-.7,1-1s.64-.67.91-1l.63-.77c.16-.2.3-.4.43-.59s.27-.38.41-.56,0,0,0,.15l0,.37c0,.45-.09,1-.14,1.43,0,.16-.09.67-.14,1s-.11.81-.18,1.21c-.15.79-.28,1.61-.47,2.41a38.12,38.12,0,0,1-1.43,5,23.51,23.51,0,0,1-2.45,5,14.92,14.92,0,0,1-3.77,4,9.42,9.42,0,0,1-4.9,1.78,10.27,10.27,0,0,1-4.76-1,19.74,19.74,0,0,1-6.35-5.09c-.36-.43-.71-.83-1-1.22l-.81-1.08c-.5-.65-.83-1.21-1.1-1.58Z" style="fill:#005790"/></g></g></g></g><g style="opacity:0.6000000238418579"><g style="clip-path:url(#j)"><path d="M44.33,44.33,29.21,3.14C48.25,9.61,84,41.66,44.33,44.33" style="fill:#5ab79e"/><g style="opacity:0.800000011920929"><g style="clip-path:url(#k)"><path d="M44.29,43.74A37.14,37.14,0,0,0,53,42.64a18.32,18.32,0,0,0,5-2,9,9,0,0,0,3.13-3,7.58,7.58,0,0,0,.94-4c0-.43,0-.15,0,.64a7,7,0,0,1-1,3.4,8.53,8.53,0,0,1-1.38,1.73,12.27,12.27,0,0,1-2.13,1.54,10.25,10.25,0,0,0,2.75-2A7.21,7.21,0,0,0,62,36.42a8.57,8.57,0,0,0,.27-3.7A14.43,14.43,0,0,0,61,28.78a25.32,25.32,0,0,0-2-3.54A46.06,46.06,0,0,0,53.75,19c-.69-.71-1.83-1.82-3-2.86s-2.38-2.06-3.11-2.66l.8.64c.52.42,1.24,1,2.1,1.77a61.37,61.37,0,0,1,5.86,5.88,31.45,31.45,0,0,1,4.66,6.88,15.16,15.16,0,0,1,1,2.58,9.05,9.05,0,0,1,.24,1c0-.22-.06-.44-.12-.65,0,0-.06-.19-.14-.54s-.24-.82-.47-1.37a22.87,22.87,0,0,0-2-3.9,37.41,37.41,0,0,0-2.6-3.54c-.38-.46-.7-.85-.93-1.1l-.36-.41c-.49-.54-1-1.07-1.5-1.61l.75.79.75.82a41.2,41.2,0,0,1,3.62,4.5,24.58,24.58,0,0,1,2,3.51,13.41,13.41,0,0,1,.94,2.85c0,.09,0,.19.07.29s.07.41.12.65.05.48.07.66,0,.2,0,.3l0,.59v0A9.4,9.4,0,0,0,62,30.56a21.59,21.59,0,0,0-2.77-5.69,47,47,0,0,0-6.93-8c-1.59-1.42-3.18-2.54-5.05-4-.62-.48-1.13-.92-1.63-1.24a4.19,4.19,0,0,1-.58-.34c-1.28-.9-2.52-1.87-3.58-2.45-.73-.44-2.52-2-2.72-2.05-.73-.07-.19,0-1.93-1-.21-.13-1-.39-1.39-.62a24.9,24.9,0,0,0-3.66-1.63l-.58-.22-.61-.23-1.07-.39-.93-.34-.12,0-.05,0v0l.08.21c.05.14.1.27.14.41.19.54.39,1.09.62,1.71.06.15.12.3.18.47s.07.16.1.25a1.42,1.42,0,0,0,.08.18l.34.78,1.56,3.83c1,2.83,1.79,4.53,2.4,6.8,1.1,2.47,2.14,5.93,3.16,8.62s1.31,3.87,2,6.29c.23.68.43,1.18.53,1.59s.57,1.33.8,2l-.14-.14c.08.22.23.68.31.91s0,.18,0,.13-.18-.18-.08.22c.31,1,.63,1.94,1,2.93s.79,1.91,1.19,2.84a.79.79,0,0,1,.18.22l.37.82c.14.14.2,0,.29.15.22-.08.87,1,1,.67,0-.14-.57-1.78-.73-2.55,0-.19.18.19.32.33-.35-1-.29-1.05-.08-.68-.07-.22-.15-.45-.15-.45l.19.19c-.8-2.47-1.61-5.24-2.57-7.57-.2-.5-.57-1.33-.81-1.88-.12-.27-.31-.91-.39-1.14s-.27-.28-.41-.42c-.57-1.77-1.82-5.6-2.05-5.39-.5-1.41-.74-1.64-1.29-3.1-.72-1.94-1.64-4.4-2.55-6.82-.51-1.32-1-2.6-1.44-3.89-.18-.48-.35-.95-.52-1.39-.44-1.21-.86-2.37-1.28-3.5l-.49-1.35c-.06-.16-.12-.32-.17-.48L30,4l0-.06.05,0,.13.05c.32.11.62.23.92.36l.66.28.77.34c1,.47,2,1,3,1.47A91.48,91.48,0,0,1,47,13.83,54.81,54.81,0,0,1,57.85,24.34a23.14,23.14,0,0,1,3.5,6.32A11.17,11.17,0,0,1,61.94,34a6.88,6.88,0,0,1-.69,3.09,7.35,7.35,0,0,1-1.85,2.36A10.7,10.7,0,0,1,57,41a20.91,20.91,0,0,1-4.8,1.63,49.21,49.21,0,0,1-6.51.89Z" style="fill:#5ab79e"/></g></g><path d="M44.33,44.33c7.15-9.52,8.49-21.28,2.86-32.19,18,11.22,22.86,30.43-2.86,32.19" style="fill:#00754b"/><g style="opacity:0.800000011920929"><g style="clip-path:url(#l)"><path d="M44.29,43.74a30.49,30.49,0,0,0,6.46-.69c.66-.18,1.34-.32,2-.52s1.29-.4,1.87-.67l.86-.36c.27-.12.52-.28.77-.4s.48-.25.7-.38.4-.26.59-.38a14.63,14.63,0,0,0,1.41-1.08c.38-.34.68-.68,1-.95s.09-.07-.32.35a7.28,7.28,0,0,1-.81.76,9.94,9.94,0,0,1-1.24.92l-.67.44-.77.41a17,17,0,0,1-1.79.82,15.8,15.8,0,0,0,4.21-2.1,8.72,8.72,0,0,0,1-.92l.48-.5c.16-.17.28-.37.43-.56a9.46,9.46,0,0,0,1.41-2.71l.2-.73c0-.13.06-.25.08-.37l.06-.38.1-.76,0-.76a14.69,14.69,0,0,0-1.3-5.9,20.26,20.26,0,0,0-1.43-2.73l-.45-.74-.47-.69c-.3-.43-.57-.82-.79-1.1a26.26,26.26,0,0,1,1.62,2.29A20.23,20.23,0,0,1,62,29a11.54,11.54,0,0,1,0,6.17c-.12.4-.29.76-.41,1.08a6.49,6.49,0,0,1-.41.8,3.46,3.46,0,0,1-.41.66,2.21,2.21,0,0,0,.28-.4L61.2,37a6.79,6.79,0,0,0,.47-1c.09-.21.17-.44.27-.67s.14-.52.21-.79a4.9,4.9,0,0,0,.16-.85,6.56,6.56,0,0,0,.11-.89c0-.3,0-.6,0-.9a7.91,7.91,0,0,0-.06-.86,11.11,11.11,0,0,0-.21-1.52c-.07-.44-.21-.79-.26-1l-.11-.39c-.18-.51-.36-1-.56-1.55a1.6,1.6,0,0,1,.1.23l.19.54c.07.19.14.38.19.53a1.83,1.83,0,0,1,.08.25,13.8,13.8,0,0,1,.71,4.27,10.69,10.69,0,0,1-.5,3c-.14.36-.3.71-.45,1.05s-.38.64-.57.95a1.18,1.18,0,0,1-.11.19l-.29.4-.42.57-.29.33h0a3.58,3.58,0,0,0,.64-.65l.48-.61.49-.8a9.93,9.93,0,0,0,1.2-4.62,14.11,14.11,0,0,0-.83-4.86,16.55,16.55,0,0,0-1.27-2.81,27.84,27.84,0,0,0-2.89-3.85,11,11,0,0,0-1-1.16,2.38,2.38,0,0,1-.38-.32,22.5,22.5,0,0,0-2.29-2.29c-.46-.42-1.54-1.86-1.69-1.9-.58-.07-.15,0-1.31-1-.07-.07-.88-.48-1.28-.77a33.48,33.48,0,0,0-3.52-2.27l-.1-.07-.06,0s0,0,0,0a1.89,1.89,0,0,0,.11.25l.21.45.34.74c.2.45.36.84.52,1.21s.34.81.54,1.27l.34.74c0,.09.09.19.14.29s.1.18.15.29A15.62,15.62,0,0,1,49,17.58c.12.34.25.68.33.93s.12.43.12.43c.13.53.24,1,.36,1.47s.15.87.23,1.29a10,10,0,0,1,.16,2.45,9.28,9.28,0,0,1,.14,1.58c0,.28,0,.56,0,.85s0,.58-.06.87c-.07,1.17-.29,2.33-.42,3.38-.1.51-.19,1-.29,1.35,0,.19-.09.38-.14.56l-.18.52a21.92,21.92,0,0,1-.85,2.14c-.2.49-.32.86-.46,1.13s-.35,1-.57,1.46l0-.15c-.07.15-.23.46-.3.62s-.09.1-.09,0,0-.2-.2.05c-.39.61-.73,1.26-1.14,1.9l-.53,1c-.17.32-.34.65-.53,1a.55.55,0,0,1,0,.22l-.33.56c0,.16.09.17.08.27.19.14-.16,1,.13,1,.11,0,.87-1.09,1.29-1.5.11-.09,0,.2,0,.36.44-.63.53-.63.42-.32.11-.14.21-.29.21-.29s0,.21,0,.21a22.46,22.46,0,0,0,3-5.28,9.82,9.82,0,0,0,.45-1.49c.06-.23.28-.68.34-.85,0-.33-.07-.31-.11-.47.52-1.31,1.28-4.3.92-4.26a10.37,10.37,0,0,0,.11-1.25c0-.17,0-.34,0-.55s0-.44,0-.73,0-.81.06-1.24,0-.88,0-1.35c0-.93-.14-1.9-.22-2.87-.08-.52-.17-1-.26-1.55,0-.25-.07-.51-.13-.76l-.17-.75c-.1-.37-.18-.73-.26-1.08s-.29-.91-.42-1.36-.26-.89-.43-1.31-.24-.62-.36-.92a6.76,6.76,0,0,0-.29-.67l-.28-.64c-.12-.17.07,0,.15,0l.3.2c.39.25.79.56,1.17.84.14.09.54.41.84.65s.64.49.95.75c.62.53,1.26,1,1.86,1.62a38.73,38.73,0,0,1,3.62,3.74A23.14,23.14,0,0,1,60.3,26a14.9,14.9,0,0,1,1.57,5.26A9.41,9.41,0,0,1,61,36.35,10.31,10.31,0,0,1,57.73,40a19.71,19.71,0,0,1-7.58,3c-.55.09-1.07.19-1.55.26l-1.35.16c-.8.11-1.46.12-1.91.16Z" style="fill:#00754b"/></g></g><path d="M44.33,44.33,3.14,59.45c6.47-19,38.52-54.76,41.19-15.12" style="fill:#79b320"/><g style="opacity:0.800000011920929"><g style="clip-path:url(#m)"><path d="M43.73,44.37a36.61,36.61,0,0,0-1.09-8.72,18.58,18.58,0,0,0-2-5,8.93,8.93,0,0,0-3-3.14,7.53,7.53,0,0,0-4-.94c-.44,0-.15,0,.63,0a7,7,0,0,1,3.39.95,8.06,8.06,0,0,1,1.74,1.39A11.6,11.6,0,0,1,40.89,31a10,10,0,0,0-2-2.76,7.21,7.21,0,0,0-2.45-1.54,8.28,8.28,0,0,0-3.7-.27,14.76,14.76,0,0,0-3.94,1.22,25.07,25.07,0,0,0-3.55,2A46.58,46.58,0,0,0,19,34.91c-.72.69-1.82,1.83-2.86,3S14.05,40.29,13.44,41l.65-.81c.42-.52,1-1.24,1.77-2.1a62.54,62.54,0,0,1,5.87-5.87,32.07,32.07,0,0,1,6.89-4.65,15.75,15.75,0,0,1,2.58-1,9.35,9.35,0,0,1,1-.23,4.8,4.8,0,0,0-.64.12l-.54.14a14.24,14.24,0,0,0-1.38.47,22.18,22.18,0,0,0-3.9,2,37.17,37.17,0,0,0-3.53,2.59l-1.1.94-.41.36c-.54.49-1.07,1-1.61,1.5l.79-.76.82-.74a42.6,42.6,0,0,1,4.5-3.64,26,26,0,0,1,3.5-1.95,13.1,13.1,0,0,1,2.86-.93l.29-.07.65-.12a6.5,6.5,0,0,1,.66-.08l.3,0,.6,0h0a9.33,9.33,0,0,0-3.48.45,21.65,21.65,0,0,0-5.7,2.77,45.92,45.92,0,0,0-8,6.94c-1.42,1.59-2.54,3.17-4,5C12.44,42,12,42.52,11.68,43a4.88,4.88,0,0,1-.34.58,43,43,0,0,0-2.45,3.58c-.44.72-2,2.51-2.05,2.72-.07.73,0,.18-1,1.93-.13.2-.39,1-.62,1.39a24.33,24.33,0,0,0-1.63,3.65l-.22.59c-.08.21-.15.41-.23.61l-.39,1.06c-.12.33-.23.64-.33.94l0,.11,0,.05s0,0,0,0l.21-.07L3,60c.54-.19,1.09-.38,1.7-.61l.47-.18.25-.1.18-.08.77-.34,3.85-1.56c2.82-1,4.52-1.79,6.79-2.4,2.47-1.1,5.93-2.14,8.62-3.17s3.88-1.3,6.29-2c.68-.23,1.18-.43,1.59-.54s1.33-.56,2-.79l-.14.14.91-.31c.23-.08.19,0,.14,0s-.19.19.22.08c1-.3,1.93-.62,2.93-1L42.41,46a.79.79,0,0,1,.22-.19l.83-.37c.14-.14,0-.2.14-.29-.08-.22,1-.86.67-1-.13,0-1.77.56-2.54.73-.18,0,.18-.18.32-.32-1,.35-1,.29-.68.08l-.45.15.19-.19c-2.46.79-5.23,1.6-7.57,2.57-.5.2-1.32.57-1.87.81-.28.12-.91.31-1.14.38s-.28.28-.42.42c-1.78.56-5.6,1.81-5.39,2-1.41.51-1.65.74-3.11,1.29l-6.82,2.56c-1.32.5-2.59,1-3.88,1.44l-1.39.51L6,57.93l-1.35.49-.47.17L4,58.67l-.06,0,0-.06,0-.12c.12-.32.24-.62.36-.92s.19-.44.28-.67L5,56.16c.46-1,.94-2,1.46-3a90.84,90.84,0,0,1,7.42-11.56,55.36,55.36,0,0,1,10.5-10.85,23.55,23.55,0,0,1,6.33-3.48A10.81,10.81,0,0,1,34,26.72a6.88,6.88,0,0,1,3.09.69,7.57,7.57,0,0,1,2.36,1.85A11.07,11.07,0,0,1,41,31.64a20.89,20.89,0,0,1,1.62,4.8,46,46,0,0,1,.89,6.5Z" style="fill:#79b320"/></g></g><path d="M44.33,44.33c-9.52-7.15-21.28-8.5-32.19-2.86,11.22-18,30.43-22.86,32.19,2.86" style="fill:#119c2f"/><g style="opacity:0.800000011920929"><g style="clip-path:url(#n)"><path d="M43.73,44.37a29.85,29.85,0,0,0-.68-6.46c-.18-.66-.32-1.34-.53-2a16.43,16.43,0,0,0-.67-1.87l-.36-.86c-.11-.28-.27-.52-.39-.78s-.25-.48-.38-.69l-.38-.59a13.49,13.49,0,0,0-1.08-1.41c-.34-.39-.68-.68-.95-1s-.07-.09.34.32a6.54,6.54,0,0,1,.77.81,9.26,9.26,0,0,1,.92,1.24l.44.66.41.77A17,17,0,0,1,42,34.36a16.49,16.49,0,0,0-2.09-4.2,9.85,9.85,0,0,0-.92-1l-.51-.47a5.46,5.46,0,0,0-.55-.43,9.62,9.62,0,0,0-2.71-1.42l-.74-.19-.37-.09-.38-.06-.76-.1h-.75a14.52,14.52,0,0,0-5.91,1.29,21.47,21.47,0,0,0-2.73,1.43l-.75.46-.68.46c-.43.3-.82.57-1.1.79a23.09,23.09,0,0,1,2.3-1.61A20.13,20.13,0,0,1,29,26.68a11.7,11.7,0,0,1,6.16,0c.41.12.76.29,1.09.41a8.62,8.62,0,0,1,.8.41,4.53,4.53,0,0,1,.66.41,2.86,2.86,0,0,0-.4-.28l-.36-.2A5.83,5.83,0,0,0,36,27l-.68-.27-.78-.21a5.08,5.08,0,0,0-.85-.16,6.88,6.88,0,0,0-.9-.1l-.89,0c-.29,0-.58,0-.87.06a12.75,12.75,0,0,0-1.51.21c-.45.08-.8.21-1.06.27l-.39.1c-.51.18-1,.36-1.55.56l.24-.1.54-.19.53-.19.24-.08a13.86,13.86,0,0,1,4.28-.71,10.33,10.33,0,0,1,3,.5c.37.14.72.3,1.06.45s.63.38,1,.56l.19.12.39.29.58.42.33.29h0a3.34,3.34,0,0,0-.66-.64l-.6-.49-.8-.48a10.09,10.09,0,0,0-4.62-1.21,14.08,14.08,0,0,0-4.86.84,17,17,0,0,0-2.82,1.27,27,27,0,0,0-3.84,2.89,10.94,10.94,0,0,0-1.17,1,2.3,2.3,0,0,1-.32.38,20.45,20.45,0,0,0-2.28,2.28c-.42.46-1.87,1.54-1.91,1.69-.07.58,0,.16-.95,1.32-.07.06-.48.87-.78,1.28a33.61,33.61,0,0,0-2.27,3.53l-.07.1,0,.05s0,0,0,0l.25-.11.44-.21.76-.34,1.2-.52,1.27-.54.73-.34.3-.15.29-.14a15,15,0,0,1,1.48-.58c.35-.12.68-.25.94-.33s.43-.12.43-.12l1.46-.35c.46-.1.88-.17,1.29-.24a10.07,10.07,0,0,1,2.45-.16,8.53,8.53,0,0,1,1.59-.13h.85c.28,0,.57,0,.87,0,1.17.07,2.33.29,3.37.42.52.1,1,.19,1.36.29l.56.14.52.18c.67.25,1.31.46,2.14.85.49.2.86.32,1.13.46s1,.35,1.46.58l-.15,0,.62.31c.16.07.1.09,0,.09s-.2,0,.05.19c.61.39,1.26.73,1.89,1.14l1,.53c.33.17.65.34,1,.53a.42.42,0,0,1,.22,0l.56.32c.16,0,.17-.09.28-.08.13-.19,1,.16,1-.13,0-.11-1.09-.87-1.5-1.29-.1-.11.2,0,.36,0-.63-.44-.63-.53-.32-.42-.14-.11-.3-.21-.3-.21h.22a22.46,22.46,0,0,0-5.28-3,13.4,13.4,0,0,0-1.49-.45c-.22-.06-.68-.27-.85-.34-.33,0-.31.08-.47.11-1.31-.52-4.3-1.28-4.26-.92a10.38,10.38,0,0,0-1.24-.11h-.56c-.2,0-.44,0-.73,0l-1.24-.05-1.35,0c-.93,0-1.9.14-2.88.21L21,38c-.25,0-.51.08-.76.14l-.75.17-1.08.26c-.47.12-.92.28-1.36.41s-.89.26-1.31.44l-.92.36a7,7,0,0,0-.68.29l-.63.28c-.17.11,0-.07,0-.16l.21-.29c.24-.39.55-.79.83-1.18.09-.13.41-.54.64-.84s.5-.64.76-1c.53-.61,1-1.25,1.62-1.86a38.73,38.73,0,0,1,3.74-3.62A22.68,22.68,0,0,1,26,28.37a14.69,14.69,0,0,1,5.26-1.57,9.28,9.28,0,0,1,5.13.91A10.24,10.24,0,0,1,40,30.93a19.66,19.66,0,0,1,3,7.59c.09.55.19,1.07.27,1.55s.1.93.15,1.34c.11.81.13,1.47.17,1.92Z" style="fill:#119c2f"/></g></g><path d="M44.33,44.33,59.45,85.52C40.41,79.05,4.7,47,44.33,44.33" style="fill:#0076a9"/><g style="opacity:0.800000011920929"><g style="clip-path:url(#o)"><path d="M44.37,44.93A36.61,36.61,0,0,0,35.65,46a18.64,18.64,0,0,0-5,2,9.08,9.08,0,0,0-3.13,3,7.53,7.53,0,0,0-.94,4c0,.44,0,.15,0-.63a7.17,7.17,0,0,1,1-3.4,8.53,8.53,0,0,1,1.38-1.73A11.9,11.9,0,0,1,31,47.78a10.25,10.25,0,0,0-2.75,2,7.21,7.21,0,0,0-1.54,2.45,8.42,8.42,0,0,0-.27,3.7,14.43,14.43,0,0,0,1.23,3.94,23.48,23.48,0,0,0,2,3.54,46.06,46.06,0,0,0,5.22,6.27c.7.72,1.83,1.82,3,2.86s2.37,2.06,3.11,2.67l-.81-.65c-.51-.42-1.23-1-2.08-1.77a60.23,60.23,0,0,1-5.87-5.87A31.52,31.52,0,0,1,27.61,60a16.06,16.06,0,0,1-1-2.58,9.41,9.41,0,0,1-.24-1c0,.21.07.43.12.64l.14.54c.11.33.24.82.47,1.38a22.78,22.78,0,0,0,2,3.89,39.25,39.25,0,0,0,2.6,3.54c.38.46.7.84.93,1.1l.36.41c.49.53,1,1.07,1.5,1.61l-.76-.8c-.37-.39-.74-.8-.74-.8a43.67,43.67,0,0,1-3.63-4.51,25.43,25.43,0,0,1-1.95-3.5,13,13,0,0,1-.94-2.85l-.07-.29c0-.18-.08-.42-.12-.65a6.5,6.5,0,0,1-.08-.66l0-.3q0-.28,0-.6v0a9.35,9.35,0,0,0,.45,3.48,21.62,21.62,0,0,0,2.78,5.69,46.3,46.3,0,0,0,6.93,8c1.59,1.42,3.17,2.54,5,4,.63.48,1.13.92,1.64,1.24.2.1.39.22.58.34,1.27.9,2.52,1.87,3.58,2.46.72.43,2.51,2,2.72,2,.72.07.19,0,1.93,1,.21.12,1,.38,1.39.61a24.33,24.33,0,0,0,3.65,1.63l.59.23.61.22,1.06.39.94.34.11,0,.06,0s0,0,0,0l-.07-.21c-.06-.14-.1-.28-.15-.42-.19-.54-.38-1.09-.62-1.7,0-.16-.12-.31-.18-.48l-.09-.24-.08-.19c-.1-.23-.22-.48-.34-.77s-1.56-3.84-1.56-3.84c-1-2.82-1.79-4.52-2.4-6.79-1.11-2.47-2.14-5.93-3.17-8.62s-1.3-3.88-2-6.29c-.22-.68-.43-1.19-.53-1.59s-.57-1.33-.8-2l.14.14c-.07-.23-.23-.68-.3-.91s0-.18,0-.14.19.19.08-.22c-.3-1-.62-1.93-1-2.93L46,46.24a.76.76,0,0,1-.19-.21l-.36-.83c-.14-.14-.2-.05-.3-.14-.21.08-.86-1-1-.67,0,.13.56,1.77.73,2.55,0,.18-.19-.19-.32-.33.35,1,.29,1,.07.67.08.23.15.46.15.46l-.18-.19c.79,2.46,1.6,5.23,2.57,7.57.2.5.56,1.32.81,1.87.12.27.3.91.38,1.14s.28.28.42.42c.56,1.78,1.81,5.61,2,5.39.5,1.41.73,1.64,1.28,3.11.73,1.93,1.65,4.39,2.56,6.81.5,1.32,1,2.6,1.44,3.89.18.48.35,1,.51,1.39.45,1.21.87,2.37,1.29,3.51L58.43,84c0,.16.11.32.17.47l.08.23,0,.06-.06,0-.12,0-.92-.36-.67-.29-.76-.34c-1-.46-2-.94-3-1.46a90.84,90.84,0,0,1-11.56-7.42A54.54,54.54,0,0,1,30.8,64.33,23.22,23.22,0,0,1,27.32,58a10.92,10.92,0,0,1-.59-3.34,6.94,6.94,0,0,1,.68-3.1,7.42,7.42,0,0,1,1.85-2.35,10.64,10.64,0,0,1,2.39-1.55A20.22,20.22,0,0,1,36.44,46,47.61,47.61,0,0,1,43,45.15Z" style="fill:#0076a9"/></g></g><path d="M44.33,44.33c-7.15,9.52-8.49,21.28-2.86,32.19-18-11.21-22.86-30.43,2.86-32.19" style="fill:#004064"/><g style="opacity:0.800000011920929"><g style="clip-path:url(#p)"><path d="M44.37,44.93a29.85,29.85,0,0,0-6.46.68c-.66.18-1.34.32-2,.53a18.62,18.62,0,0,0-1.87.67l-.86.36c-.28.12-.52.27-.77.39s-.48.25-.7.38l-.59.38a16.33,16.33,0,0,0-1.41,1.07c-.39.35-.68.69-1,1s-.09.07.32-.34a6.54,6.54,0,0,1,.81-.77,9.94,9.94,0,0,1,1.24-.92l.67-.44.77-.41a17,17,0,0,1,1.79-.82,16.1,16.1,0,0,0-4.21,2.1,8.82,8.82,0,0,0-1,.92l-.47.5a5.93,5.93,0,0,0-.43.56,9.46,9.46,0,0,0-1.41,2.71l-.19.74c0,.12-.07.24-.1.37l-.05.38-.1.75,0,.76a14.69,14.69,0,0,0,1.3,5.9,20.93,20.93,0,0,0,1.42,2.74c.16.24.31.49.46.73s.32.47.46.69c.31.43.57.82.79,1.1a24.18,24.18,0,0,1-1.61-2.29,20.11,20.11,0,0,1-2.51-5.64,11.64,11.64,0,0,1,0-6.17c.12-.41.29-.76.41-1.08s.26-.54.41-.8a4.88,4.88,0,0,1,.41-.66,3.89,3.89,0,0,0-.28.39s-.07.14-.2.36a5.19,5.19,0,0,0-.47,1l-.28.67c-.06.25-.13.51-.21.79a4.9,4.9,0,0,0-.16.85,6.73,6.73,0,0,0-.1.89l0,.89c0,.3,0,.59.06.87a11.13,11.13,0,0,0,.22,1.52c.07.44.2.79.26,1s.11.4.11.4c.17.5.35,1,.56,1.54a1.6,1.6,0,0,1-.1-.23c-.05-.15-.13-.35-.19-.54s-.14-.39-.2-.53a1.82,1.82,0,0,1-.07-.25,13.81,13.81,0,0,1-.71-4.28,10.33,10.33,0,0,1,.5-3c.14-.37.29-.71.44-1s.38-.64.57-1l.12-.19.29-.39.42-.57.29-.34s0,0,0,0a2.82,2.82,0,0,0-.64.65c-.15.18-.31.37-.48.6l-.5.8A10.21,10.21,0,0,0,26,56.55a14.18,14.18,0,0,0,.84,4.87,16.47,16.47,0,0,0,1.27,2.81A27.64,27.64,0,0,0,31,68.08a10.84,10.84,0,0,0,1,1.16,2.3,2.3,0,0,1,.38.32,22.4,22.4,0,0,0,2.28,2.29c.46.42,1.54,1.86,1.69,1.9.58.07.16,0,1.32,1,.06.07.87.48,1.28.78a35.26,35.26,0,0,0,3.52,2.28l.11.06,0,0s0,0,0,0l-.12-.25-.21-.44-.33-.75c-.2-.45-.36-.83-.52-1.2s-.34-.82-.55-1.27c-.1-.23-.21-.47-.34-.74,0-.1-.09-.19-.14-.3s-.1-.18-.15-.29-.32-.8-.57-1.48c-.12-.35-.25-.69-.33-.93l-.12-.43c-.13-.54-.24-1-.36-1.47s-.16-.88-.23-1.29a10.65,10.65,0,0,1-.17-2.46,9.27,9.27,0,0,1-.13-1.58c0-.28,0-.56,0-.85s0-.58.06-.87c.06-1.17.28-2.33.41-3.38.1-.51.2-.95.29-1.35.05-.2.09-.38.14-.56l.18-.52a22.3,22.3,0,0,1,.86-2.15c.19-.48.31-.85.45-1.12s.35-1,.58-1.46l0,.15.31-.62c.08-.15.09-.1.09-.05s0,.2.2,0c.38-.62.72-1.27,1.14-1.9l.52-1c.17-.32.34-.65.53-1a.42.42,0,0,1,0-.22l.32-.57c0-.15-.09-.16-.08-.27-.19-.13.16-1-.13-1-.1,0-.86,1.09-1.29,1.5-.1.09,0-.21,0-.36-.44.63-.53.62-.42.31-.11.15-.2.3-.2.3v-.21a22.4,22.4,0,0,0-3,5.27,12.94,12.94,0,0,0-.45,1.5,7.52,7.52,0,0,1-.34.85c0,.32.08.31.11.46-.52,1.32-1.27,4.3-.92,4.26a10.7,10.7,0,0,0-.1,1.25c0,.18,0,.35,0,.55s0,.44,0,.74,0,.8-.05,1.23,0,.89,0,1.36c0,.93.14,1.9.21,2.87.09.52.18,1,.26,1.54,0,.26.08.51.14.76l.17.76c.09.37.18.73.26,1.08s.28.91.42,1.35.26.9.43,1.31.24.62.36.93a5.65,5.65,0,0,0,.29.67c.09.21.18.42.28.63s-.07,0-.15,0l-.3-.2c-.39-.25-.79-.56-1.18-.83l-.83-.65c-.32-.25-.64-.49-1-.76-.62-.53-1.26-1-1.86-1.62a38.62,38.62,0,0,1-3.62-3.73,23.14,23.14,0,0,1-3.09-4.62,14.69,14.69,0,0,1-1.57-5.26,9.37,9.37,0,0,1,.91-5.13,10.24,10.24,0,0,1,3.22-3.64,19.56,19.56,0,0,1,7.58-2.95l1.56-.27,1.34-.15c.81-.11,1.46-.13,1.92-.16Z" style="fill:#004064"/></g></g><path d="M44.33,44.33,85.52,29.22C79.05,48.25,47,84,44.33,44.33" style="fill:#1b9bd3"/><g style="opacity:0.800000011920929"><g style="clip-path:url(#q)"><path d="M44.93,44.29A37.11,37.11,0,0,0,46,53a18.35,18.35,0,0,0,2,5,9.08,9.08,0,0,0,3,3.13,7.57,7.57,0,0,0,4,.94c.43,0,.14,0-.63,0a7.1,7.1,0,0,1-3.4-1,8.59,8.59,0,0,1-1.74-1.38,11.63,11.63,0,0,1-1.54-2.14,10.14,10.14,0,0,0,2,2.76A7.25,7.25,0,0,0,52.25,62a8.38,8.38,0,0,0,3.69.27A14.22,14.22,0,0,0,59.88,61a23.57,23.57,0,0,0,3.55-2,46.67,46.67,0,0,0,6.27-5.22c.71-.69,1.81-1.83,2.86-3s2-2.38,2.66-3.12l-.65.81c-.41.51-1,1.23-1.77,2.09a60.23,60.23,0,0,1-5.87,5.87A31.83,31.83,0,0,1,60,61.05a16.71,16.71,0,0,1-2.58,1c-.33.09-.68.17-1,.23.21,0,.44-.07.65-.12l.53-.14A13.37,13.37,0,0,0,59,61.53a22.18,22.18,0,0,0,3.9-2,39.14,39.14,0,0,0,3.54-2.59c.45-.39.84-.7,1.09-.94l.42-.36c.53-.49,1.06-1,1.6-1.5l-.79.76-.81.74a42.38,42.38,0,0,1-4.51,3.63,24.48,24.48,0,0,1-3.5,2,14.21,14.21,0,0,1-2.85.94l-.3.06-.65.12c-.23,0-.48.06-.66.08l-.3,0-.59,0h0A9.4,9.4,0,0,0,58.1,62a21.32,21.32,0,0,0,5.69-2.78,45.87,45.87,0,0,0,8-6.93c1.41-1.58,2.54-3.17,4-5,.48-.63.91-1.13,1.24-1.64a4.88,4.88,0,0,1,.34-.58,42,42,0,0,0,2.46-3.58c.43-.72,2-2.51,2-2.71.08-.73,0-.19,1-1.94.12-.21.38-1,.61-1.39a25.43,25.43,0,0,0,1.64-3.65c.07-.21.15-.4.22-.59s.15-.41.22-.61l.39-1.06.34-.94,0-.11,0-.06h0l-.2.08-.42.14-1.7.62-.48.18-.24.1-.19.07-.77.35-3.84,1.56c-2.82,1-4.52,1.79-6.79,2.4C69.18,35,65.72,36.06,63,37.08s-3.87,1.3-6.28,2c-.68.23-1.19.44-1.6.54s-1.32.57-2,.79l.13-.13-.9.3c-.23.08-.19,0-.14,0s.18-.19-.22-.08c-1,.3-1.94.62-2.93,1l-2.84,1.19a1,1,0,0,1-.21.19l-.83.37c-.14.13-.05.2-.14.29.08.22-1,.86-.67.95.13,0,1.77-.56,2.54-.73.18,0-.19.19-.33.33,1-.35,1-.29.68-.08l.46-.15-.19.18c2.46-.79,5.23-1.6,7.56-2.56.51-.2,1.33-.57,1.88-.82.27-.12.91-.3,1.14-.38s.28-.27.42-.41c1.78-.57,5.6-1.82,5.39-2,1.41-.5,1.64-.73,3.1-1.29L73.86,34c1.32-.51,2.6-1,3.89-1.44L79.14,32l3.5-1.29L84,30.24l.48-.17L84.7,30l.06,0,0,.06,0,.11c-.11.32-.23.63-.36.92s-.19.45-.28.67l-.34.76c-.46,1-.95,2-1.46,3A91.55,91.55,0,0,1,74.83,47a55.08,55.08,0,0,1-10.5,10.85A23.28,23.28,0,0,1,58,61.35a11.17,11.17,0,0,1-3.34.59,6.88,6.88,0,0,1-3.09-.69,7.4,7.4,0,0,1-2.36-1.84A11,11,0,0,1,47.66,57,21,21,0,0,1,46,52.23a49.21,49.21,0,0,1-.89-6.51Z" style="fill:#1b9bd3"/></g></g><path d="M44.33,44.33c9.52,7.15,21.28,8.49,32.19,2.87-11.22,18-30.43,22.85-32.19-2.87" style="fill:#005790"/><g style="opacity:0.800000011920929"><g style="clip-path:url(#r)"><path d="M44.93,44.29a29.85,29.85,0,0,0,.68,6.46c.18.66.32,1.34.53,2a18.62,18.62,0,0,0,.67,1.87c.12.3.24.58.36.86s.27.52.4.77.24.48.37.7l.38.59a14.63,14.63,0,0,0,1.08,1.41c.35.38.68.68,1,1s.07.09-.34-.32a6.54,6.54,0,0,1-.77-.81,9.26,9.26,0,0,1-.92-1.24c-.13-.21-.29-.43-.44-.67l-.4-.76a17.06,17.06,0,0,1-.83-1.79,16.2,16.2,0,0,0,2.1,4.2,8.82,8.82,0,0,0,.92,1l.51.48a5.7,5.7,0,0,0,.55.42,9.21,9.21,0,0,0,2.71,1.41l.74.2c.12,0,.24.07.37.09l.38,0,.75.11h.76A14.44,14.44,0,0,0,62.34,61a20.38,20.38,0,0,0,2.74-1.43l.74-.46.68-.46c.43-.3.82-.57,1.11-.79a25.68,25.68,0,0,1-2.3,1.61A20.13,20.13,0,0,1,59.67,62a11.5,11.5,0,0,1-6.16,0c-.41-.12-.77-.29-1.09-.41a7.53,7.53,0,0,1-.8-.41,4,4,0,0,1-.66-.41,2.86,2.86,0,0,0,.4.28l.36.2a5.83,5.83,0,0,0,1,.48l.67.27.79.21a4.9,4.9,0,0,0,.85.16,6.55,6.55,0,0,0,.89.1l.89,0c.29,0,.59,0,.87-.06a11.13,11.13,0,0,0,1.52-.22c.44-.07.79-.2,1-.26a3.07,3.07,0,0,0,.39-.1c.52-.18,1-.36,1.55-.57a.94.94,0,0,1-.23.1c-.15.06-.34.13-.54.19l-.53.2-.25.08a13.8,13.8,0,0,1-4.27.71,10.77,10.77,0,0,1-3-.51c-.37-.13-.71-.29-1-.44s-.63-.38-1-.57l-.2-.11c-.1-.08-.24-.19-.39-.29l-.57-.43-.33-.29v0a3.34,3.34,0,0,0,.66.64l.59.48.81.49a9.93,9.93,0,0,0,4.62,1.2,13.89,13.89,0,0,0,4.86-.84,15.12,15.12,0,0,0,2.81-1.27,25.72,25.72,0,0,0,3.84-2.89,9.28,9.28,0,0,0,1.17-1,3.9,3.9,0,0,1,.33-.38,21.34,21.34,0,0,0,2.28-2.28c.42-.46,1.86-1.54,1.9-1.69.07-.58,0-.15,1-1.31.08-.07.49-.88.78-1.29a34.15,34.15,0,0,0,2.28-3.52l.06-.11,0,0s0,0,0,0l-.24.12-.45.21-.75.34-1.2.52c-.37.16-.82.33-1.27.54l-.74.34-.29.14-.29.15c-.1.06-.8.33-1.49.57-.34.12-.68.26-.93.33l-.43.13-1.47.35L67,50.08a10.6,10.6,0,0,1-2.45.16,9.27,9.27,0,0,1-1.58.13h-.85c-.29,0-.58,0-.87-.06-1.17-.06-2.33-.29-3.38-.42l-1.35-.28-.56-.14-.52-.18a22.21,22.21,0,0,1-2.14-.86c-.49-.19-.86-.31-1.13-.45s-1-.35-1.46-.58l.15,0-.62-.31c-.15-.09-.1-.09-.05-.09s.2,0,0-.2c-.62-.39-1.27-.73-1.9-1.14l-1-.52c-.32-.18-.65-.34-1-.54a.49.49,0,0,1-.21,0l-.57-.32c-.16,0-.17.08-.28.08-.13.18-1-.17-1,.13,0,.1,1.09.86,1.5,1.29.1.1-.2,0-.36,0,.63.44.63.53.32.43l.3.2h-.22a22.42,22.42,0,0,0,5.28,3,9.49,9.49,0,0,0,1.49.45c.22.06.68.28.85.34.33,0,.31-.07.46-.11,1.32.52,4.3,1.28,4.26.92a10.71,10.71,0,0,0,1.26.11l.54,0c.21,0,.45,0,.74,0l1.24.06,1.35,0c.93,0,1.9-.13,2.87-.21l1.55-.26c.25,0,.51-.07.76-.13l.75-.18,1.08-.26c.47-.11.91-.28,1.36-.41s.89-.26,1.3-.44l.93-.35c.23-.09.46-.18.68-.29l.63-.28c.17-.12,0,.07,0,.15l-.2.3c-.26.39-.56.79-.84,1.17-.09.14-.42.54-.64.84s-.5.64-.76.95c-.53.62-1.05,1.26-1.62,1.86a37.61,37.61,0,0,1-3.74,3.62,23.36,23.36,0,0,1-4.61,3.09,15.17,15.17,0,0,1-5.26,1.57,9.29,9.29,0,0,1-5.13-.92,10.08,10.08,0,0,1-3.64-3.22,19.57,19.57,0,0,1-3-7.58c-.09-.55-.19-1.07-.26-1.56s-.11-.93-.16-1.33c-.11-.82-.12-1.47-.16-1.92Z" style="fill:#005790"/></g></g></g></g><path d="M44.33,44.33Q48.08,22.72,51.84,1.1C65.09,16.22,80,61.83,44.33,44.33" style="fill:#5ab79e"/><g style="opacity:0.800000011920929"><g style="clip-path:url(#s)"><path d="M44.59,43.8a37.4,37.4,0,0,0,8.1,3.41,18.4,18.4,0,0,0,5.37.77,9.07,9.07,0,0,0,4.23-1,7.59,7.59,0,0,0,2.82-3c.21-.39.09-.13-.3.55a7.18,7.18,0,0,1-2.52,2.47,8.56,8.56,0,0,1-2.07.81A12.14,12.14,0,0,1,57.6,48a10,10,0,0,0,3.4-.37,7.25,7.25,0,0,0,2.56-1.35,8.49,8.49,0,0,0,2.08-3.07,14.57,14.57,0,0,0,.91-4,25.39,25.39,0,0,0,0-4.09,46.8,46.8,0,0,0-1.39-8c-.24-1-.68-2.49-1.17-4s-1-3-1.37-3.87l.38,1c.24.61.56,1.5.92,2.57a60.58,60.58,0,0,1,2.15,8,32,32,0,0,1,.59,8.29,15.6,15.6,0,0,1-.45,2.72,9,9,0,0,1-.31,1c.08-.21.16-.42.22-.62,0,0,.05-.2.15-.53s.2-.84.28-1.43a23.07,23.07,0,0,0,.2-4.39,39.81,39.81,0,0,0-.48-4.36c-.1-.59-.19-1.08-.26-1.42l-.11-.54c-.15-.7-.32-1.41-.49-2.14l.25,1.07.24,1.07a42.51,42.51,0,0,1,.89,5.72,24.41,24.41,0,0,1-.06,4,13.37,13.37,0,0,1-.61,2.94,1.31,1.31,0,0,1-.09.28l-.22.63c-.08.22-.19.44-.26.61a2.21,2.21,0,0,1-.13.27c-.08.17-.18.35-.27.54l0,0a9.26,9.26,0,0,0,1.35-3.24A21.63,21.63,0,0,0,67,34.93a45.83,45.83,0,0,0-2-10.38c-.67-2-1.48-3.78-2.38-6-.31-.72-.52-1.35-.8-1.89a4.19,4.19,0,0,1-.34-.58,38.87,38.87,0,0,0-1.87-3.91c-.4-.74-1.15-3-1.33-3.14-.59-.43-.15-.12-1.16-1.85C57,7,56.44,6.41,56.19,6a26.74,26.74,0,0,0-2.35-3.24l-.4-.48c-.14-.18-.28-.34-.42-.5L52.3.9,51.66.13,51.58.05l0,0s0,0,0,0l0,.22c0,.14-.06.28-.08.43-.11.57-.22,1.14-.32,1.79,0,.16-.06.32-.08.49a2.51,2.51,0,0,0,0,.27l0,.2c0,.25,0,.52-.09.83s-.56,4.11-.56,4.11c-.55,2.95-.72,4.81-1.32,7.08-.29,2.7-1.12,6.21-1.57,9.05s-.82,4-1.38,6.47c-.14.71-.22,1.24-.33,1.64s-.17,1.44-.32,2.14l0-.18-.2.94c-.05.23-.06.17-.08.1s-.06-.25-.18.16c-.21,1-.43,2-.63,3l-.39,3.05a.67.67,0,0,1,.06.28l-.09.9c0,.19.14.14.18.27.22,0,.23,1.32.49,1.06.08-.11.4-1.82.64-2.57.06-.17.06.25.11.45.18-1,.28-1.06.28-.63l.1-.47c0,.06.06.25.06.25.55-2.52,1.23-5.33,1.56-7.83.08-.53.17-1.43.24-2a11.68,11.68,0,0,1,.24-1.18c0-.42-.1-.38-.15-.57.4-1.82,1.22-5.76.91-5.69.27-1.48.19-1.79.44-3.34.35-2,.78-4.62,1.2-7.18.22-1.39.46-2.73.69-4.09.09-.5.17-1,.26-1.46.21-1.26.43-2.49.64-3.68.08-.47.16-.95.25-1.41l.09-.49,0-.24V2.13l0,.05.08.1c.22.26.43.52.62.77l.44.58.49.68c.64.9,1.25,1.81,1.83,2.75a91.42,91.42,0,0,1,6.31,12.2,54.82,54.82,0,0,1,4.14,14.52A23,23,0,0,1,65.9,41a11,11,0,0,1-1.16,3.19,6.82,6.82,0,0,1-2.14,2.33,7.75,7.75,0,0,1-2.78,1.12,10.8,10.8,0,0,1-2.84.14,20.56,20.56,0,0,1-5-1,49.35,49.35,0,0,1-6.08-2.48Z" style="fill:#5ab79e"/></g></g><path d="M44.33,44.33c11-4.67,18-14.18,18.58-26.45,10,18.73,4.57,37.79-18.58,26.45" style="fill:#00754b"/><g style="opacity:0.800000011920929"><g style="clip-path:url(#t)"><path d="M44.59,43.8a30,30,0,0,0,5.94,2.63c.66.18,1.32.39,2,.54a19,19,0,0,0,2,.35l.93.12c.3,0,.59,0,.87,0l.79,0,.7,0a13,13,0,0,0,1.76-.23c.51-.1.93-.25,1.31-.34s.11,0-.45.13a6.94,6.94,0,0,1-1.09.27,9.81,9.81,0,0,1-1.53.17l-.8.05-.87,0c-.65,0-1.31-.09-1.95-.18a16,16,0,0,0,4.68.28,8.64,8.64,0,0,0,1.34-.29l.67-.2c.22-.07.42-.18.64-.26A9.61,9.61,0,0,0,64,45.19l.53-.54.27-.27.23-.31.47-.6.39-.65a14.47,14.47,0,0,0,1.83-5.76A21.11,21.11,0,0,0,67.9,34l0-.86c0-.29,0-.57-.07-.83,0-.52-.07-1-.12-1.35a26.23,26.23,0,0,1,.25,2.8,20.17,20.17,0,0,1-.65,6.14,11.49,11.49,0,0,1-3.1,5.32c-.31.3-.63.52-.9.74a6.06,6.06,0,0,1-.76.48,3.29,3.29,0,0,1-.69.38,3.1,3.1,0,0,0,.45-.21l.35-.21a6.13,6.13,0,0,0,.9-.6l.58-.45.57-.57a5.86,5.86,0,0,0,.57-.66,7.4,7.4,0,0,0,.53-.72l.47-.76c.15-.26.26-.53.38-.78a11.83,11.83,0,0,0,.57-1.43,9.76,9.76,0,0,0,.3-1l.11-.4c.1-.53.2-1.06.29-1.62a2.34,2.34,0,0,1,0,.26c0,.15-.06.35-.1.55s-.07.41-.1.56a1.84,1.84,0,0,1,0,.25A14.08,14.08,0,0,1,66.09,43a10.73,10.73,0,0,1-1.93,2.32c-.31.25-.61.47-.91.69s-.64.36-1,.54l-.19.11-.45.19-.65.29-.42.14h0a3,3,0,0,0,.89-.25l.72-.27.82-.46a9.82,9.82,0,0,0,3.35-3.4,13.93,13.93,0,0,0,1.71-4.62,16.74,16.74,0,0,0,.31-3.07,27.38,27.38,0,0,0-.58-4.78A12.91,12.91,0,0,0,67.53,29a1.88,1.88,0,0,1-.17-.47,21,21,0,0,0-.84-3.11c-.19-.6-.4-2.39-.51-2.5-.47-.35-.12-.09-.67-1.48,0-.1-.51-.86-.71-1.32a34.54,34.54,0,0,0-1.92-3.73l-.06-.11,0-.06s0,0,0,.05,0,.18,0,.27,0,.33,0,.49-.06.57-.09.82c-.05.48-.1.9-.15,1.3s-.11.87-.16,1.37c0,.25,0,.52-.08.81,0,.1,0,.21,0,.33s0,.2,0,.32a13.69,13.69,0,0,1-.24,1.57c-.07.36-.12.72-.18,1s-.11.43-.11.43c-.16.53-.31,1-.44,1.45s-.29.84-.44,1.23a10.06,10.06,0,0,1-1.08,2.21,8.89,8.89,0,0,1-.68,1.43c-.14.24-.27.49-.41.75s-.33.48-.49.72c-.64,1-1.41,1.88-2.05,2.72l-.92,1-.41.42-.41.36c-.55.45-1.06.91-1.81,1.43-.41.32-.71.59-1,.75s-.8.67-1.23,1l.06-.14c-.15.09-.44.29-.58.39s-.13,0-.11,0,.09-.18-.19,0c-.64.34-1.27.73-1.93,1.07l-1,.59c-.31.2-.62.39-.94.56a.46.46,0,0,1-.13.18l-.57.33c-.08.12,0,.19-.06.28.1.21-.65.8-.37.9.1,0,1.29-.51,1.86-.65.14,0-.11.17-.2.3.7-.32.77-.28.53-.06.16-.07.32-.16.32-.16l-.11.19A22.23,22.23,0,0,0,52,41,12.78,12.78,0,0,0,53.18,40a7.72,7.72,0,0,1,.72-.56c.19-.27.09-.31.14-.46,1.1-.88,3.25-3.09,2.92-3.23a10.54,10.54,0,0,0,.72-1c.1-.15.18-.3.29-.47s.22-.38.38-.63.44-.67.67-1,.43-.78.65-1.18a28.39,28.39,0,0,0,1.25-2.6c.19-.49.37-1,.55-1.46.09-.25.2-.48.27-.73l.22-.74.32-1.07c.13-.46.21-.93.32-1.38s.22-.9.27-1.35.11-.66.16-1a6.6,6.6,0,0,0,.09-.73l.06-.69c0-.2.07,0,.12.11l.16.33c.21.41.4.87.6,1.31.07.15.25.63.4,1s.31.75.44,1.14c.27.77.56,1.53.8,2.33A38.07,38.07,0,0,1,67,30.87a23.88,23.88,0,0,1,.37,5.54,14.77,14.77,0,0,1-1.28,5.34,9.27,9.27,0,0,1-3.35,4,10.11,10.11,0,0,1-4.61,1.54,19.49,19.49,0,0,1-8-1.23c-.53-.19-1-.37-1.48-.55L47.34,45c-.76-.31-1.33-.63-1.74-.82Z" style="fill:#00754b"/></g></g><path d="M44.33,44.33,1.1,36.83c15.12-13.26,60.74-28.16,43.23,7.5" style="fill:#79b320"/><g style="opacity:0.800000011920929"><g style="clip-path:url(#u)"><path d="M43.79,44.07A37.23,37.23,0,0,0,47.21,36,18.4,18.4,0,0,0,48,30.6a9,9,0,0,0-1-4.22,7.48,7.48,0,0,0-3-2.83c-.38-.21-.13-.09.56.3a7.1,7.1,0,0,1,2.46,2.53,8.49,8.49,0,0,1,.81,2.06A11.54,11.54,0,0,1,48,31.06a10.27,10.27,0,0,0-.36-3.4,7.44,7.44,0,0,0-1.36-2.56A8.45,8.45,0,0,0,43.23,23a14.64,14.64,0,0,0-4-.91,25.39,25.39,0,0,0-4.09,0,47.79,47.79,0,0,0-8,1.39c-1,.24-2.48.68-4,1.17s-3,1-3.88,1.37l1-.38c.62-.23,1.5-.56,2.58-.92a60,60,0,0,1,8-2.15A31.63,31.63,0,0,1,39.08,22a15.6,15.6,0,0,1,2.72.45,6.94,6.94,0,0,1,1,.31c-.21-.08-.41-.16-.62-.22l-.53-.15c-.35-.08-.84-.2-1.43-.28a22.21,22.21,0,0,0-4.39-.2,39.81,39.81,0,0,0-4.36.48c-.59.1-1.08.18-1.42.26l-.54.11c-.7.15-1.41.31-2.14.49L28.45,23l1.07-.23a40.75,40.75,0,0,1,5.72-.89,24.43,24.43,0,0,1,4,.06,13.49,13.49,0,0,1,2.94.61l.29.09.62.22c.23.08.44.19.61.26l.27.13.53.27,0,0a9.26,9.26,0,0,0-3.24-1.35,21.29,21.29,0,0,0-6.32-.44,45.93,45.93,0,0,0-10.38,2c-2,.66-3.78,1.47-5.95,2.38-.73.3-1.36.52-1.9.8a5.45,5.45,0,0,1-.58.33c-1.33.56-2.64,1.19-3.91,1.88-.74.4-3,1.15-3.14,1.33-.42.59-.12.14-1.85,1.16-.21.12-.81.64-1.22.89a25.1,25.1,0,0,0-3.25,2.35l-.48.4-.5.41-.87.73L.14,37l-.09.08,0,0s0,0,0,0l.22,0,.43.08c.57.11,1.13.22,1.79.32l.5.08.25,0,.2,0,.84.09,4.11.57c2.95.54,4.81.71,7.08,1.31,2.69.28,6.21,1.11,9.05,1.57s4,.81,6.47,1.37c.71.14,1.24.22,1.64.34s1.44.17,2.14.31l-.18,0,.94.19c.23,0,.17.06.11.08s-.25.07.15.18c1,.22,2,.43,3,.63l3.05.39a.69.69,0,0,1,.28,0l.9.09c.19-.05.14-.15.27-.18,0-.23,1.32-.24,1.06-.5-.11-.08-1.82-.39-2.57-.64-.17-.06.25-.06.44-.11-1-.18-1-.28-.62-.28L41.14,43l.25-.07c-2.52-.54-5.33-1.23-7.83-1.56-.54-.08-1.43-.17-2-.23-.3,0-.94-.19-1.18-.24-.43,0-.38.1-.57.14-1.82-.39-5.76-1.22-5.69-.91-1.47-.27-1.8-.19-3.34-.44l-7.18-1.19c-1.4-.22-2.73-.46-4.09-.69L8,37.6,4.34,37l-1.41-.25-.5-.09-.24,0H2.13l.05,0,.1-.08c.25-.22.51-.42.77-.62l.57-.43.68-.49c.91-.64,1.82-1.26,2.76-1.84a91.36,91.36,0,0,1,12.2-6.3,54.41,54.41,0,0,1,14.53-4.14,22.66,22.66,0,0,1,7.21.14,10.84,10.84,0,0,1,3.18,1.16,6.76,6.76,0,0,1,2.34,2.14,7.36,7.36,0,0,1,1.12,2.77,10.48,10.48,0,0,1,.15,2.85,21,21,0,0,1-1,5,48.72,48.72,0,0,1-2.48,6.08Z" style="fill:#79b320"/></g></g><path d="M44.33,44.33c-4.67-10.95-14.18-18-26.45-18.58,18.74-10,37.79-4.57,26.45,18.58" style="fill:#119c2f"/><g style="opacity:0.800000011920929"><g style="clip-path:url(#v)"><path d="M43.79,44.07a30,30,0,0,0,2.64-5.94c.17-.66.39-1.32.54-2s.3-1.32.35-1.95l.12-.93c0-.3,0-.59,0-.86s0-.55,0-.8,0-.48,0-.7a11.62,11.62,0,0,0-.23-1.76c-.1-.51-.25-.93-.34-1.3s0-.12.14.44a8.22,8.22,0,0,1,.26,1.09,10,10,0,0,1,.17,1.53c0,.26,0,.52.05.8s0,.57,0,.87c0,.65-.09,1.31-.18,2a16.49,16.49,0,0,0,.28-4.7,8.77,8.77,0,0,0-.29-1.33c-.07-.22-.13-.44-.2-.66s-.18-.43-.27-.65a9.19,9.19,0,0,0-1.64-2.58l-.54-.54c-.09-.08-.18-.18-.28-.26l-.3-.23-.6-.47-.65-.39a14.47,14.47,0,0,0-5.76-1.83A19.79,19.79,0,0,0,34,20.77l-.87,0c-.28,0-.55.05-.82.07-.53,0-1,.07-1.35.12a23.85,23.85,0,0,1,2.8-.24,19.88,19.88,0,0,1,6.14.64,11.6,11.6,0,0,1,5.32,3.11c.29.31.52.63.74.9a6,6,0,0,1,.48.75,4.11,4.11,0,0,1,.37.68,2.48,2.48,0,0,0-.2-.44L46.38,26a6.18,6.18,0,0,0-.61-.9c-.14-.18-.29-.38-.45-.57L44.75,24a4.5,4.5,0,0,0-.66-.57,6.36,6.36,0,0,0-.72-.53l-.76-.47c-.25-.15-.52-.25-.77-.38a12.52,12.52,0,0,0-1.43-.57,9.76,9.76,0,0,0-1-.3l-.4-.11c-.52-.1-1.06-.2-1.62-.29l.26,0,.56.1.55.1.25.05A13.94,13.94,0,0,1,43,22.58a10.46,10.46,0,0,1,2.33,1.92c.24.3.47.61.69.91s.36.64.53,1a1.22,1.22,0,0,1,.12.19c0,.13.12.29.19.45.14.33.29.66.29.66s.09.27.14.41v0a3.4,3.4,0,0,0-.25-.88c-.08-.21-.17-.45-.28-.72s-.29-.53-.45-.82a9.82,9.82,0,0,0-3.4-3.35,14,14,0,0,0-4.63-1.71,16.65,16.65,0,0,0-3.07-.31,26.47,26.47,0,0,0-4.77.59,9.76,9.76,0,0,0-1.51.27,1.86,1.86,0,0,1-.47.16,23.37,23.37,0,0,0-3.11.84c-.6.19-2.39.4-2.5.51-.35.47-.09.13-1.48.67-.09,0-.86.51-1.31.72A34.62,34.62,0,0,0,16.35,26l-.11.06,0,0s0,0,0,0l.27,0,.49,0,.82.09,1.3.15c.4,0,.87.12,1.37.17l.81.07.33,0,.32,0c.11,0,.86.12,1.58.25.35.07.71.12,1,.18l.43.11,1.45.43c.44.14.84.29,1.23.44a10.06,10.06,0,0,1,2.21,1.08,8.51,8.51,0,0,1,1.43.68l.74.41c.25.15.48.33.73.49,1,.64,1.87,1.42,2.72,2.05.39.34.73.65,1,.92s.29.27.42.41l.36.41c.45.56.91,1,1.43,1.81.32.41.58.7.75,1s.67.79,1,1.23l-.14-.06c.09.15.29.44.38.58s.05.13,0,.11-.18-.09,0,.19c.34.64.73,1.26,1.07,1.94l.59.94c.19.31.39.62.56.94a.46.46,0,0,1,.18.13l.33.56c.13.09.19,0,.28.07.21-.1.8.66.91.37,0-.1-.51-1.28-.66-1.86,0-.14.17.11.3.2-.32-.7-.27-.77-.06-.52a3.45,3.45,0,0,0-.16-.33l.19.11A22.23,22.23,0,0,0,41,36.62,12.78,12.78,0,0,0,40,35.48a7.72,7.72,0,0,1-.56-.72c-.27-.19-.31-.09-.47-.13-.87-1.11-3.08-3.26-3.23-2.93a10.41,10.41,0,0,0-1-.72l-.47-.29-.63-.38-1-.67L31.35,29c-.8-.47-1.71-.84-2.59-1.25l-1.46-.55c-.25-.09-.48-.19-.73-.27l-.74-.22-1.07-.32c-.46-.12-.93-.21-1.38-.32s-.9-.22-1.35-.27l-1-.16a5.82,5.82,0,0,0-.73-.08l-.68-.07c-.21,0,0-.07.1-.12l.33-.16c.41-.2.87-.4,1.31-.59l1-.41c.38-.14.75-.31,1.13-.44.77-.27,1.53-.56,2.33-.8a39.69,39.69,0,0,1,5.05-1.27,23.35,23.35,0,0,1,5.54-.37,15,15,0,0,1,5.34,1.27,9.37,9.37,0,0,1,4,3.36,10.11,10.11,0,0,1,1.54,4.61,19.82,19.82,0,0,1-1.23,8c-.2.53-.37,1-.55,1.48s-.38.87-.54,1.24c-.31.76-.62,1.33-.81,1.74Z" style="fill:#119c2f"/></g></g><path d="M44.33,44.33l-7.5,43.23C23.57,72.44,8.67,26.82,44.33,44.33" style="fill:#0076a9"/><g style="opacity:0.800000011920929"><g style="clip-path:url(#w)"><path d="M44.07,44.87A37,37,0,0,0,36,41.45a18.4,18.4,0,0,0-5.37-.77,9,9,0,0,0-4.22,1,7.55,7.55,0,0,0-2.83,3c-.21.39-.09.13.3-.55a7.13,7.13,0,0,1,2.53-2.47,8.49,8.49,0,0,1,2.06-.81,12.15,12.15,0,0,1,2.62-.28,10.28,10.28,0,0,0-3.4.38,7.25,7.25,0,0,0-2.56,1.35A8.26,8.26,0,0,0,23,45.44a14.24,14.24,0,0,0-.92,4,25.39,25.39,0,0,0,0,4.09,47.62,47.62,0,0,0,1.39,8c.24,1,.68,2.49,1.17,4s1,3,1.37,3.87l-.38-1c-.23-.62-.56-1.5-.92-2.58a60,60,0,0,1-2.15-8A31.6,31.6,0,0,1,22,49.58a15.6,15.6,0,0,1,.45-2.72,9,9,0,0,1,.3-1c-.07.21-.16.41-.21.62,0,0-.06.2-.15.54a14.21,14.21,0,0,0-.28,1.42,22.28,22.28,0,0,0-.2,4.39,37.48,37.48,0,0,0,.47,4.36c.11.59.19,1.08.26,1.42s.11.54.11.54c.16.7.32,1.41.5,2.14L23,60.21l-.24-1.07a44.44,44.44,0,0,1-.89-5.72,26.85,26.85,0,0,1,.06-4,13.51,13.51,0,0,1,.62-2.94,1.9,1.9,0,0,1,.09-.29c.05-.16.14-.39.22-.62L23.1,45c.07-.17.12-.27.12-.27l.27-.53a0,0,0,0,0,0,0,9.47,9.47,0,0,0-1.36,3.24,22,22,0,0,0-.44,6.32,45.84,45.84,0,0,0,2,10.38c.66,2,1.47,3.79,2.38,6,.3.73.52,1.35.8,1.89a6.65,6.65,0,0,1,.33.58,41.43,41.43,0,0,0,1.88,3.92c.4.73,1.15,3,1.33,3.13.59.43.14.13,1.15,1.85.13.22.65.82.9,1.23a25.7,25.7,0,0,0,2.35,3.24l.39.48.42.5.73.87.64.76.08.1,0,0s0,0,0,0l0-.22c0-.14.06-.29.08-.43.11-.56.22-1.13.32-1.79,0-.16,0-.32.08-.49s0-.18,0-.27l0-.19c0-.26.06-.54.09-.84s.56-4.11.56-4.11c.54-3,.71-4.81,1.32-7.08.28-2.7,1.11-6.21,1.57-9s.82-4,1.37-6.47c.15-.71.23-1.24.34-1.65s.17-1.43.31-2.14l0,.2c.05-.24.15-.71.19-1s.07-.17.09-.11.06.26.17-.15c.22-1,.43-2,.64-3s.26-2,.38-3a.87.87,0,0,1,0-.28l.09-.9c-.05-.19-.15-.14-.18-.27-.23,0-.23-1.32-.49-1.06-.09.11-.4,1.82-.65,2.57-.06.18-.06-.25-.11-.44-.17,1-.27,1-.27.62l-.1.47c0-.06-.07-.25-.07-.25-.54,2.52-1.23,5.33-1.55,7.83-.08.54-.18,1.43-.24,2,0,.3-.19.94-.24,1.18,0,.42.1.38.15.57-.4,1.82-1.23,5.76-.92,5.69-.27,1.48-.18,1.8-.44,3.34-.34,2-.77,4.63-1.19,7.18-.23,1.39-.46,2.73-.7,4.08-.08.51-.17,1-.24,1.46-.23,1.27-.44,2.49-.64,3.68-.09.48-.17,1-.26,1.41l-.09.5,0,.25v.06l0,0-.08-.1c-.22-.25-.43-.51-.62-.77L35.38,85l-.49-.68c-.63-.91-1.25-1.82-1.83-2.75a90.91,90.91,0,0,1-6.3-12.21,54.34,54.34,0,0,1-4.14-14.52,22.71,22.71,0,0,1,.14-7.22,11,11,0,0,1,1.16-3.19,6.82,6.82,0,0,1,2.14-2.33A7.36,7.36,0,0,1,28.83,41a10.9,10.9,0,0,1,2.85-.15,21.06,21.06,0,0,1,5,1,49.35,49.35,0,0,1,6.08,2.48Z" style="fill:#0076a9"/></g></g><path d="M44.33,44.33C33.38,49,26.33,58.51,25.76,70.78,15.76,52.05,21.18,33,44.33,44.33" style="fill:#004064"/><g style="opacity:0.800000011920929"><g style="clip-path:url(#x)"><path d="M44.07,44.87a30,30,0,0,0-5.94-2.64c-.66-.17-1.32-.39-2-.54a19,19,0,0,0-1.95-.35l-.92-.12c-.3,0-.59,0-.87,0l-.79,0-.71,0a13,13,0,0,0-1.76.23c-.5.1-.93.25-1.3.35s-.11,0,.45-.14a5.77,5.77,0,0,1,1.09-.26,9.69,9.69,0,0,1,1.53-.18l.79,0,.87,0a18.31,18.31,0,0,1,2,.19,16.4,16.4,0,0,0-4.69-.29,8.93,8.93,0,0,0-1.34.3l-.66.2a5,5,0,0,0-.64.26,9.31,9.31,0,0,0-2.58,1.65l-.54.54a3.31,3.31,0,0,0-.26.27l-.24.3-.46.6-.4.65a14.46,14.46,0,0,0-1.82,5.76,19.8,19.8,0,0,0-.14,3.08c0,.29,0,.59,0,.87s.05.56.07.82c0,.53.08,1,.13,1.35a26,26,0,0,1-.25-2.79,20.16,20.16,0,0,1,.64-6.14,11.58,11.58,0,0,1,3.11-5.33c.31-.29.63-.52.9-.74s.49-.33.75-.48a3.75,3.75,0,0,1,.68-.37,2.48,2.48,0,0,0-.44.2l-.35.21a6.88,6.88,0,0,0-.91.61l-.57.45-.57.57a4.5,4.5,0,0,0-.57.66,7.4,7.4,0,0,0-.53.72c-.15.26-.31.51-.47.76s-.26.52-.38.78a11.69,11.69,0,0,0-.57,1.42,9.76,9.76,0,0,0-.3,1l-.11.4c-.1.53-.2,1.07-.29,1.62a1.87,1.87,0,0,1,0-.25c0-.16.06-.36.1-.56s.07-.4.1-.56,0-.16.05-.25a14.16,14.16,0,0,1,1.53-4.06,10.19,10.19,0,0,1,1.92-2.32c.31-.25.61-.47.91-.69s.65-.36,1-.54l.19-.12.45-.19.66-.29.41-.14h0a3.11,3.11,0,0,0-.89.25l-.72.27c-.25.14-.52.3-.82.45a10,10,0,0,0-3.34,3.41,13.93,13.93,0,0,0-1.71,4.62,16,16,0,0,0-.31,3.08,26.46,26.46,0,0,0,.58,4.77,9.76,9.76,0,0,0,.27,1.51,2.54,2.54,0,0,1,.17.46,22.41,22.41,0,0,0,.83,3.12c.2.59.41,2.39.52,2.5.47.35.13.09.66,1.48,0,.09.52.85.72,1.31A34.62,34.62,0,0,0,26,72.32l.07.11,0,0s0,0,0,0l0-.27c0-.17,0-.34,0-.49,0-.3.05-.57.08-.82.06-.49.11-.9.15-1.3s.12-.88.17-1.37c0-.25.05-.52.07-.81q0-.15,0-.33c0-.11,0-.21,0-.32s.12-.86.25-1.58c.07-.36.12-.71.18-1s.11-.43.11-.43l.43-1.45c.14-.44.3-.84.44-1.23a10.53,10.53,0,0,1,1.08-2.21,8.94,8.94,0,0,1,.68-1.43c.14-.25.27-.5.42-.75s.32-.47.48-.72c.64-1,1.42-1.88,2.05-2.71.35-.4.65-.74.92-1l.41-.42c.13-.13.28-.24.41-.36C35,51,35.55,50.53,36.3,50c.42-.32.71-.59,1-.75s.79-.68,1.22-1l-.05.14L39,48c.15-.08.13,0,.11,0s-.08.19.19.06c.64-.34,1.26-.73,1.94-1.07l.94-.59c.31-.19.62-.4.94-.56a.46.46,0,0,1,.13-.18l.57-.33c.09-.13,0-.2.06-.28s.66-.81.37-.9c-.1,0-1.28.5-1.87.65-.13,0,.12-.17.21-.3-.7.32-.78.28-.53.06l-.32.16a2,2,0,0,1,.11-.19,22.29,22.29,0,0,0-5.25,3.07,11.34,11.34,0,0,0-1.13,1.06,8.11,8.11,0,0,1-.72.57c-.19.27-.09.31-.14.46-1.11.88-3.25,3.08-2.92,3.23A7.32,7.32,0,0,0,31,54c-.09.15-.19.29-.29.46s-.22.39-.38.63l-.67,1c-.22.38-.43.78-.66,1.19-.47.8-.83,1.71-1.25,2.59-.18.5-.37,1-.54,1.47-.09.24-.2.48-.27.73l-.23.73-.31,1.07c-.13.46-.21.93-.32,1.38s-.22.9-.28,1.35l-.15,1c-.05.25-.06.49-.09.73s0,.46-.07.69-.06,0-.12-.11l-.15-.33c-.21-.41-.41-.87-.6-1.31-.07-.14-.25-.62-.4-1s-.31-.75-.45-1.13c-.26-.76-.56-1.53-.79-2.33a37.93,37.93,0,0,1-1.27-5,23.47,23.47,0,0,1-.37-5.55,15,15,0,0,1,1.27-5.34,9.42,9.42,0,0,1,3.35-4,10.35,10.35,0,0,1,4.61-1.54,19.73,19.73,0,0,1,8.05,1.24l1.48.54,1.24.54c.76.31,1.33.63,1.74.82Z" style="fill:#004064"/></g></g><path d="M44.33,44.33l43.23,7.51C72.44,65.09,26.82,80,44.33,44.33" style="fill:#1b9bd3"/><g style="opacity:0.800000011920929"><g style="clip-path:url(#y)"><path d="M44.86,44.59a37.4,37.4,0,0,0-3.41,8.1,18.4,18.4,0,0,0-.77,5.37,9,9,0,0,0,1,4.22,7.55,7.55,0,0,0,3,2.83c.39.21.13.09-.55-.3a7.13,7.13,0,0,1-2.47-2.53,8.49,8.49,0,0,1-.81-2.06,12.15,12.15,0,0,1-.28-2.62A10.58,10.58,0,0,0,41,61a7.59,7.59,0,0,0,1.35,2.56,8.58,8.58,0,0,0,3.07,2.08,14.73,14.73,0,0,0,4,.91,25.26,25.26,0,0,0,4.08,0,47.71,47.71,0,0,0,8.05-1.38c1-.25,2.48-.69,4-1.18s3-1,3.88-1.37l-1,.38c-.62.23-1.51.56-2.58.92a60,60,0,0,1-8,2.15,31.67,31.67,0,0,1-8.3.58,15,15,0,0,1-2.72-.44,6.82,6.82,0,0,1-1-.31,4.57,4.57,0,0,0,.62.22l.53.15c.34.07.83.2,1.43.28a22.21,22.21,0,0,0,4.39.2,37.33,37.33,0,0,0,4.35-.48c.6-.1,1.09-.18,1.43-.26l.53-.1c.71-.16,1.42-.32,2.15-.5l-1.07.26-1.08.24a44,44,0,0,1-5.71.89,26.83,26.83,0,0,1-4-.06,13.38,13.38,0,0,1-2.94-.62L46.18,66l-.62-.22c-.22-.08-.44-.19-.61-.26l-.27-.13-.53-.27,0,0a9.47,9.47,0,0,0,3.24,1.36,22,22,0,0,0,6.32.44,46.38,46.38,0,0,0,10.38-2c2-.67,3.79-1.48,6-2.39.72-.3,1.35-.52,1.89-.8a6.65,6.65,0,0,1,.58-.33c1.34-.56,2.64-1.18,3.92-1.87.73-.41,3-1.16,3.13-1.33.43-.59.13-.15,1.85-1.16.22-.12.82-.64,1.23-.9a25.63,25.63,0,0,0,3.24-2.34l.48-.4.5-.42.87-.72c.27-.24.53-.45.77-.65l.09-.08,0,0h0l-.22,0L88,51.41l-1.79-.32-.5-.08-.26,0-.19,0-.84-.09-4.11-.57c-3-.54-4.81-.71-7.08-1.32-2.7-.28-6.21-1.11-9-1.57s-4-.81-6.47-1.37c-.7-.14-1.24-.22-1.65-.33s-1.43-.18-2.13-.32l.19-.05-1-.19c-.24,0-.17-.07-.1-.08s.25-.07-.16-.18c-1-.22-2-.43-3-.63l-3.06-.39a.64.64,0,0,1-.28.06l-.9-.1c-.19,0-.14.15-.27.18,0,.23-1.32.24-1.06.5.11.08,1.82.4,2.57.64.18.06-.25.06-.44.11,1,.18,1,.27.62.28l.47.09-.25.07c2.52.54,5.33,1.23,7.83,1.56.54.08,1.43.17,2,.24a11.77,11.77,0,0,1,1.18.23c.43,0,.38-.1.57-.15,1.82.4,5.76,1.23,5.69.92,1.48.27,1.8.19,3.34.44l7.17,1.2c1.41.22,2.74.46,4.09.69l1.47.25,3.68.64,1.41.25.49.09.25.05h.06l0,0-.1.08c-.26.22-.51.42-.77.62l-.58.43-.67.49c-.91.65-1.83,1.26-2.75,1.84a92.09,92.09,0,0,1-12.21,6.3,54.34,54.34,0,0,1-14.52,4.14,23.32,23.32,0,0,1-7.22-.14,10.68,10.68,0,0,1-3.18-1.17,6.83,6.83,0,0,1-2.34-2.13A7.56,7.56,0,0,1,41,59.83,10.48,10.48,0,0,1,40.88,57a20.57,20.57,0,0,1,1-5,47.89,47.89,0,0,1,2.49-6.08Z" style="fill:#1b9bd3"/></g></g><path d="M44.33,44.33c4.67,11,14.18,18,26.45,18.58C52.05,72.91,33,67.49,44.33,44.33" style="fill:#005790"/><g style="opacity:0.800000011920929"><g style="clip-path:url(#z)"><path d="M44.86,44.59a30,30,0,0,0-2.63,5.94c-.18.66-.39,1.32-.54,2s-.3,1.32-.35,2l-.12.93c0,.3,0,.58,0,.86s0,.55,0,.8,0,.48,0,.7a13,13,0,0,0,.23,1.76c.11.5.25.93.34,1.3s0,.11-.13-.44a6.94,6.94,0,0,1-.27-1.09,11.37,11.37,0,0,1-.17-1.53c0-.26,0-.52,0-.8l0-.87a18.56,18.56,0,0,1,.19-2,15.72,15.72,0,0,0-.29,4.69,8.64,8.64,0,0,0,.29,1.34c.07.22.13.44.2.66s.18.43.26.65A9.61,9.61,0,0,0,43.47,64l.54.53.27.27.3.23.6.47.66.39a14.48,14.48,0,0,0,5.75,1.83,20,20,0,0,0,3.09.13l.86,0,.83-.06c.52,0,1-.08,1.34-.14a23.52,23.52,0,0,1-2.79.26,20.17,20.17,0,0,1-6.14-.65,11.66,11.66,0,0,1-5.33-3.1c-.29-.31-.51-.63-.73-.9a6.06,6.06,0,0,1-.48-.76,3.48,3.48,0,0,1-.38-.68,3.55,3.55,0,0,0,.21.44l.21.36a5.42,5.42,0,0,0,.6.9l.45.57.58.57a4.5,4.5,0,0,0,.66.57,5.57,5.57,0,0,0,.72.53l.75.47c.26.15.53.26.78.39.47.21.94.4,1.42.56s.79.23,1,.31l.4.1,1.61.29-.25,0-.56-.09-.56-.11-.24,0a13.82,13.82,0,0,1-4.07-1.53,10.41,10.41,0,0,1-2.32-1.92c-.25-.3-.47-.61-.69-.91s-.36-.64-.54-1a1.55,1.55,0,0,1-.11-.19c-.06-.12-.13-.29-.2-.45L41.48,61c0-.13-.09-.28-.14-.42v0a3.4,3.4,0,0,0,.25.88c.08.21.18.45.28.72l.45.83a10,10,0,0,0,3.4,3.34,14,14,0,0,0,4.63,1.71,16.65,16.65,0,0,0,3.07.31,27.39,27.39,0,0,0,4.77-.58,11.14,11.14,0,0,0,1.51-.28,2,2,0,0,1,.47-.16,23.93,23.93,0,0,0,3.12-.84c.59-.19,2.38-.4,2.49-.52.35-.46.09-.12,1.48-.66.09,0,.86-.51,1.32-.72a34.47,34.47,0,0,0,3.73-1.91l.11-.06,0,0s0,0,0,0l-.27,0-.49-.05-.82-.08-1.3-.15c-.41-.05-.88-.12-1.38-.17l-.8-.07-.33,0-.32,0c-.11,0-.86-.12-1.58-.25l-1-.17-.43-.11c-.53-.17-1-.3-1.45-.43l-1.24-.45a10.65,10.65,0,0,1-2.2-1.07,11,11,0,0,1-1.43-.68l-.75-.42c-.25-.14-.48-.32-.73-.49-1-.64-1.87-1.41-2.71-2-.4-.35-.73-.65-1-.93s-.28-.28-.42-.4l-.35-.42c-.46-.55-.91-1.05-1.44-1.81-.32-.41-.58-.7-.75-1s-.67-.79-1-1.22l.15,0L48,49.65c-.09-.15,0-.12,0-.1s.18.08,0-.2c-.33-.64-.73-1.26-1.07-1.93l-.59-1c-.2-.31-.39-.62-.56-.94a.46.46,0,0,1-.18-.13l-.33-.56c-.12-.09-.19,0-.27-.07-.21.1-.81-.65-.92-.37,0,.11.51,1.29.66,1.87,0,.14-.17-.12-.3-.2.32.69.28.77.06.52l.16.33-.18-.11a21.85,21.85,0,0,0,3.06,5.24,12.78,12.78,0,0,0,1.07,1.14c.16.16.45.57.57.72s.3.09.46.13c.87,1.11,3.08,3.26,3.22,2.93a10.68,10.68,0,0,0,1,.72l.46.29.63.38,1,.67c.38.22.78.43,1.19.65.8.47,1.71.83,2.59,1.25l1.47.55.72.27.74.22,1.07.32c.46.13.93.21,1.38.31a13.51,13.51,0,0,0,1.35.28l1,.16c.25,0,.49.06.73.08l.69.07c.2,0,0,.07-.11.12l-.33.16c-.41.2-.87.4-1.31.6l-1,.39c-.38.15-.76.31-1.14.45-.77.27-1.53.57-2.33.8a38.07,38.07,0,0,1-5,1.27,23.34,23.34,0,0,1-5.54.36,14.55,14.55,0,0,1-5.34-1.27,9.32,9.32,0,0,1-4-3.35,10.11,10.11,0,0,1-1.54-4.61,19.49,19.49,0,0,1,1.23-8l.54-1.49c.2-.44.38-.86.54-1.24.31-.75.63-1.32.82-1.74Z" style="fill:#005790"/></g></g><path d="M118.89,73.78a5.92,5.92,0,0,0-.7-.49c-.31-.2-.62-.42-.91-.65a4.37,4.37,0,0,1-.77-.78,1.3,1.3,0,0,1-.33-.8v-5.8l2-18.39V44.49a5.41,5.41,0,0,1-1.92-1.57,18.47,18.47,0,0,1-1.69-2.52c-.53-.95-1-2-1.5-3s-.9-2.12-1.31-3.13-.8-2-1.17-2.84a18,18,0,0,0-1.08-2.15,3.84,3.84,0,0,0-.68-.88c-.33-.35-.65-.71-1-1.08s-.63-.74-.89-1.08a2.55,2.55,0,0,1-.49-.88.42.42,0,0,1,.27-.54h0a2.88,2.88,0,0,1,1.4,0c.62.09,1.15.19,1.59.28a5.34,5.34,0,0,1,1.22.42,5,5,0,0,1,1.08.75c.42.4.83.82,1.21,1.26a.94.94,0,0,1,.28.59,1.38,1.38,0,0,1-.09.53c-.06.19-.12.39-.19.59a1.31,1.31,0,0,0,0,.68c.1.18.25.48.47.91s.45.86.7,1.33.5.92.73,1.34.4.71.5.86.17.46.44,1.17.57,1.52.89,2.39.64,1.7.94,2.48a14.23,14.23,0,0,0,.58,1.4.87.87,0,0,0,.17.21c.08.08.13.12.16.12l2.75-18.77c.09-.32.17-.65.23-1s.21-1,.35-1.59.28-1.22.42-1.87.28-1.26.42-1.81.27-1,.37-1.34.19-.53.26-.55c.25,0,.6-.07,1-.1a5.94,5.94,0,0,1,1.33.07,3.6,3.6,0,0,1,1.24.44,1.8,1.8,0,0,1,.8.94,1.86,1.86,0,0,1,0,1.07,12.86,12.86,0,0,1-.44,1.37l-.56,1.35a4.53,4.53,0,0,0-.33,1c0,.16-.08.48-.14.94s-.12,1-.19,1.52-.13,1.07-.21,1.57-.13.86-.16,1.08a18.91,18.91,0,0,0,0,2.38c0,1,.06,2,.09,3s.06,2.09.08,3.09a15.16,15.16,0,0,1-.12,2.43,28.4,28.4,0,0,1-1.19,5.06,29.34,29.34,0,0,0-1.18,5.15c-.35,2.65-.7,5.31-1.08,8s-.69,5.35-1,8c0,.09,0,.41,0,1s0,1.2-.09,2-.12,1.54-.21,2.41-.2,1.66-.35,2.4a9.22,9.22,0,0,1-.54,1.93c-.22.53-.48.82-.79.88a.79.79,0,0,1-.3-.12,1.9,1.9,0,0,1-.4-.21" style="fill:#00754b"/><path d="M118.89,73.78a5.92,5.92,0,0,0-.7-.49c-.31-.2-.62-.42-.91-.65a4.37,4.37,0,0,1-.77-.78,1.3,1.3,0,0,1-.33-.8v-5.8l2-18.39V44.49a5.41,5.41,0,0,1-1.92-1.57,18.47,18.47,0,0,1-1.69-2.52c-.53-.95-1-2-1.5-3s-.9-2.12-1.31-3.13-.8-2-1.17-2.84a18,18,0,0,0-1.08-2.15,3.84,3.84,0,0,0-.68-.88c-.33-.35-.65-.71-1-1.08s-.63-.74-.89-1.08a2.55,2.55,0,0,1-.49-.88.42.42,0,0,1,.27-.54h0a2.88,2.88,0,0,1,1.4,0c.62.09,1.15.19,1.59.28a5.34,5.34,0,0,1,1.22.42,5,5,0,0,1,1.08.75c.42.4.83.82,1.21,1.26a.94.94,0,0,1,.28.59,1.38,1.38,0,0,1-.09.53c-.06.19-.12.39-.19.59a1.31,1.31,0,0,0,0,.68c.1.18.25.48.47.91s.45.86.7,1.33.5.92.73,1.34.4.71.5.86.17.46.44,1.17.57,1.52.89,2.39.64,1.7.94,2.48a14.23,14.23,0,0,0,.58,1.4.87.87,0,0,0,.17.21c.08.08.13.12.16.12l2.75-18.77c.09-.32.17-.65.23-1s.21-1,.35-1.59.28-1.22.42-1.87.28-1.26.42-1.81.27-1,.37-1.34.19-.53.26-.55c.25,0,.6-.07,1-.1a5.94,5.94,0,0,1,1.33.07,3.6,3.6,0,0,1,1.24.44,1.8,1.8,0,0,1,.8.94,1.86,1.86,0,0,1,0,1.07,12.86,12.86,0,0,1-.44,1.37l-.56,1.35a4.53,4.53,0,0,0-.33,1c0,.16-.08.48-.14.94s-.12,1-.19,1.52-.13,1.07-.21,1.57-.13.86-.16,1.08a18.91,18.91,0,0,0,0,2.38c0,1,.06,2,.09,3s.06,2.09.08,3.09a15.16,15.16,0,0,1-.12,2.43,28.4,28.4,0,0,1-1.19,5.06,29.34,29.34,0,0,0-1.18,5.15c-.35,2.65-.7,5.31-1.08,8s-.69,5.35-1,8c0,.09,0,.41,0,1s0,1.2-.09,2-.12,1.54-.21,2.41-.2,1.66-.35,2.4a9.22,9.22,0,0,1-.54,1.93c-.22.53-.48.82-.79.88a.79.79,0,0,1-.3-.12A2.22,2.22,0,0,1,118.89,73.78Z" style="fill:none;stroke:#00754b;stroke-miterlimit:10;stroke-width:0.6481972988514867px"/><path d="M148.28,66a20.72,20.72,0,0,1-1-3.79c-.21-1.34-.38-2.71-.49-4.1s-.18-2.76-.19-4.13,0-2.7-.08-4V37.26a9.77,9.77,0,0,0-1.21,0,12.83,12.83,0,0,0-1.64.16,7.22,7.22,0,0,0-1.57.45,1.78,1.78,0,0,0-1,.77c-.15.37-.46,1-.91,2s-.95,1.93-1.49,3-1.06,2-1.54,2.92-.84,1.57-1,1.94c0,.07-.27.37-.7.92s-.95,1.18-1.53,1.92-1.16,1.47-1.75,2.2l-1.45,1.8c-.41.5-.8.62-1.17.35a3.48,3.48,0,0,1-1-1.24,8.5,8.5,0,0,1-.68-1.78,3,3,0,0,1-.14-1.26,16.2,16.2,0,0,1,1.87-3.09c.75-1,1.52-1.92,2.32-2.88s1.54-1.92,2.24-2.9a12.89,12.89,0,0,0,1.66-3.16,6.14,6.14,0,0,0-1.48.14l-2,.41a20.83,20.83,0,0,1-2.08.3,4.39,4.39,0,0,1-1.73-.14,1.33,1.33,0,0,1-.91-.94A3.22,3.22,0,0,1,128,37a2.16,2.16,0,0,1,.84,0,7.6,7.6,0,0,1,.83.16l.85.16a2.22,2.22,0,0,0,.89,0,13.77,13.77,0,0,0,1.57-.21l1.87-.3c.61-.09,1.36-.24,2.27-.42l10.1-18.59a12.24,12.24,0,0,1,.37-2c.12-.39.29-.58.49-.56a1.21,1.21,0,0,1,.72.47q.42.43,1.08,1.05c.22.25.58.63,1.08,1.12a7.27,7.27,0,0,1,1.21,1.55,2,2,0,0,1,.33,1.45c-.09.44-.62.7-1.59.79,0,.35,0,.94,0,1.78s0,1.73,0,2.67,0,1.82,0,2.64,0,1.42,0,1.76c0,.15,0,.31,0,.47s-.07.52-.11.81-.09.57-.12.82a4,4,0,0,0,0,.47,2.44,2.44,0,0,0,0,.66,2.84,2.84,0,0,0,0,.65l4.36.33c.12-.44.35-.63.69-.59a3.15,3.15,0,0,1,1.11.4,6.8,6.8,0,0,1,1.05.73l.51.44c.32.18.32.32,0,.42a6.31,6.31,0,0,1-1.36.21c-.61.05-1.31.09-2.11.12s-1.54.09-2.24.17a8.07,8.07,0,0,0-1.76.35c-.47.15-.68.39-.66.7s-.09,1.21-.18,2.32-.2,2.28-.3,3.53-.21,2.43-.31,3.56-.15,1.9-.18,2.33v1q0,.6-.09,1.89c0,.86-.06,1.82-.09,2.9s-.08,2.2-.14,3.37-.11,2.29-.14,3.37-.07,2-.11,2.9-.07,1.5-.07,1.9a1.2,1.2,0,0,1-.21-.34.82.82,0,0,1-.12-.32m-5.45-30.65h.37c.13,0,.37-.08.73-.13L145,35l1.1-.18.75-.14c.09-1.19.18-2.47.27-3.86a32.71,32.71,0,0,0,.05-4Z" style="fill:#00754b"/><path d="M148.28,66a20.72,20.72,0,0,1-1-3.79c-.21-1.34-.38-2.71-.49-4.1s-.18-2.76-.19-4.13,0-2.7-.08-4V37.26a9.77,9.77,0,0,0-1.21,0,12.83,12.83,0,0,0-1.64.16,7.22,7.22,0,0,0-1.57.45,1.78,1.78,0,0,0-1,.77c-.15.37-.46,1-.91,2s-.95,1.93-1.49,3-1.06,2-1.54,2.92-.84,1.57-1,1.94c0,.07-.27.37-.7.92s-.95,1.18-1.53,1.92-1.16,1.47-1.75,2.2l-1.45,1.8c-.41.5-.8.62-1.17.35a3.48,3.48,0,0,1-1-1.24,8.5,8.5,0,0,1-.68-1.78,3,3,0,0,1-.14-1.26,16.2,16.2,0,0,1,1.87-3.09c.75-1,1.52-1.92,2.32-2.88s1.54-1.92,2.24-2.9a12.89,12.89,0,0,0,1.66-3.16,6.14,6.14,0,0,0-1.48.14l-2,.41a20.83,20.83,0,0,1-2.08.3,4.39,4.39,0,0,1-1.73-.14,1.33,1.33,0,0,1-.91-.94A3.22,3.22,0,0,1,128,37a2.16,2.16,0,0,1,.84,0,7.6,7.6,0,0,1,.83.16l.85.16a2.22,2.22,0,0,0,.89,0,13.77,13.77,0,0,0,1.57-.21l1.87-.3c.61-.09,1.36-.24,2.27-.42l10.1-18.59a12.24,12.24,0,0,1,.37-2c.12-.39.29-.58.49-.56a1.21,1.21,0,0,1,.72.47q.42.43,1.08,1.05c.22.25.58.63,1.08,1.12a7.27,7.27,0,0,1,1.21,1.55,2,2,0,0,1,.33,1.45c-.09.44-.62.7-1.59.79,0,.35,0,.94,0,1.78s0,1.73,0,2.67,0,1.82,0,2.64,0,1.42,0,1.76c0,.15,0,.31,0,.47s-.07.52-.11.81-.09.57-.12.82a4,4,0,0,0,0,.47,2.44,2.44,0,0,0,0,.66,2.84,2.84,0,0,0,0,.65l4.36.33c.12-.44.35-.63.69-.59a3.15,3.15,0,0,1,1.11.4,6.8,6.8,0,0,1,1.05.73l.51.44c.32.18.32.32,0,.42a6.31,6.31,0,0,1-1.36.21c-.61.05-1.31.09-2.11.12s-1.54.09-2.24.17a8.07,8.07,0,0,0-1.76.35c-.47.15-.68.39-.66.7s-.09,1.21-.18,2.32-.2,2.28-.3,3.53-.21,2.43-.31,3.56-.15,1.9-.18,2.33v1q0,.6-.09,1.89c0,.86-.06,1.82-.09,2.9s-.08,2.2-.14,3.37-.11,2.29-.14,3.37-.07,2-.11,2.9-.07,1.5-.07,1.9a1.2,1.2,0,0,1-.21-.34A.72.72,0,0,1,148.28,66Zm-5.45-30.65h.37c.13,0,.37-.08.73-.13l1.12-.2,1.1-.18.75-.14c.09-1.19.18-2.47.27-3.86a32.71,32.71,0,0,0,.05-4Z" style="fill:none;stroke:#00754b;stroke-miterlimit:10;stroke-width:0.6481972988514867px"/><path d="M159,54.43a.87.87,0,0,1-.21-.17.3.3,0,0,1-.12-.21,4,4,0,0,1,.51-2.9,4.76,4.76,0,0,1,2.15-1.66,13.65,13.65,0,0,1,3.28-.85c1.24-.17,2.52-.31,3.81-.4l3.77-.28a13.82,13.82,0,0,0,3.18-.59,4.4,4.4,0,0,0,2-1.26,2.48,2.48,0,0,0,.31-2.27,2.26,2.26,0,0,0-.62-1.08A4.18,4.18,0,0,0,176,42a7.93,7.93,0,0,0-1.24-.52l-1.17-.35c-1.22-.27-2.54-.54-4-.78a19.28,19.28,0,0,1-4-1.16,9.53,9.53,0,0,1-3.25-2.12,6.26,6.26,0,0,1-1.69-3.74,18.31,18.31,0,0,1,0-4.56,18,18,0,0,1,1.09-4.47,12.67,12.67,0,0,1,2.18-3.7,7.86,7.86,0,0,1,3.18-2.3,3.22,3.22,0,0,1,.44-.14l.75-.21.75-.21a3.22,3.22,0,0,0,.44-.14l.33-.33,3.09-.71c-.07-.06.23-.15.89-.27a18.56,18.56,0,0,1,5.22-.17,6.53,6.53,0,0,1,2.43.7,2,2,0,0,1,1.05,1.59,4.47,4.47,0,0,1-1.26,2.78v.33a.91.91,0,0,0-.49.07,4.07,4.07,0,0,0-.66.33l-.68.4a2.21,2.21,0,0,1-.55.23c-.46-.41-.93-.8-1.43-1.17a7.06,7.06,0,0,0-1.62-.88,11.89,11.89,0,0,0-2.92,0,8.63,8.63,0,0,0-2.34.63,16.66,16.66,0,0,0-2.22,1.15c-.75.45-1.62.94-2.57,1.47a4.79,4.79,0,0,0-2.09,2.67,8.91,8.91,0,0,0-.46,4,10.06,10.06,0,0,0,1.33,4.09,6.81,6.81,0,0,0,3.24,2.87c.78.19,1.61.39,2.5.59s1.78.44,2.67.72a25.27,25.27,0,0,1,2.62,1,14.6,14.6,0,0,1,2.45,1.42,6.5,6.5,0,0,1,2.21,2.39,4.7,4.7,0,0,1,.49,2.5,5.81,5.81,0,0,1-.82,2.42,11.23,11.23,0,0,1-1.75,2.19,12.94,12.94,0,0,1-2.34,1.83,14.44,14.44,0,0,1-2.55,1.27,6.25,6.25,0,0,1-.87.26l-1.1.21-1.08.16a5.35,5.35,0,0,1-.7.07c-.34,0-.91.07-1.7.1l-2.55.09-2.58.1c-.82,0-1.37,0-1.69,0a2.85,2.85,0,0,1-.41,0l-.61-.09-.61-.1-.42-.09" style="fill:#00754b"/><path d="M159,54.43a.87.87,0,0,1-.21-.17.3.3,0,0,1-.12-.21,4,4,0,0,1,.51-2.9,4.76,4.76,0,0,1,2.15-1.66,13.65,13.65,0,0,1,3.28-.85c1.24-.17,2.52-.31,3.81-.4l3.77-.28a13.82,13.82,0,0,0,3.18-.59,4.4,4.4,0,0,0,2-1.26,2.48,2.48,0,0,0,.31-2.27,2.26,2.26,0,0,0-.62-1.08A4.18,4.18,0,0,0,176,42a7.93,7.93,0,0,0-1.24-.52l-1.17-.35c-1.22-.27-2.54-.54-4-.78a19.28,19.28,0,0,1-4-1.16,9.53,9.53,0,0,1-3.25-2.12,6.26,6.26,0,0,1-1.69-3.74,18.31,18.31,0,0,1,0-4.56,18,18,0,0,1,1.09-4.47,12.67,12.67,0,0,1,2.18-3.7,7.86,7.86,0,0,1,3.18-2.3,3.22,3.22,0,0,1,.44-.14l.75-.21.75-.21a3.22,3.22,0,0,0,.44-.14l.33-.33,3.09-.71c-.07-.06.23-.15.89-.27a18.56,18.56,0,0,1,5.22-.17,6.53,6.53,0,0,1,2.43.7,2,2,0,0,1,1.05,1.59,4.47,4.47,0,0,1-1.26,2.78v.33a.91.91,0,0,0-.49.07,4.07,4.07,0,0,0-.66.33l-.68.4a2.21,2.21,0,0,1-.55.23c-.46-.41-.93-.8-1.43-1.17a7.06,7.06,0,0,0-1.62-.88,11.89,11.89,0,0,0-2.92,0,8.63,8.63,0,0,0-2.34.63,16.66,16.66,0,0,0-2.22,1.15c-.75.45-1.62.94-2.57,1.47a4.79,4.79,0,0,0-2.09,2.67,8.91,8.91,0,0,0-.46,4,10.06,10.06,0,0,0,1.33,4.09,6.81,6.81,0,0,0,3.24,2.87c.78.19,1.61.39,2.5.59s1.78.44,2.67.72a25.27,25.27,0,0,1,2.62,1,14.6,14.6,0,0,1,2.45,1.42,6.5,6.5,0,0,1,2.21,2.39,4.7,4.7,0,0,1,.49,2.5,5.81,5.81,0,0,1-.82,2.42,11.23,11.23,0,0,1-1.75,2.19,12.94,12.94,0,0,1-2.34,1.83,14.44,14.44,0,0,1-2.55,1.27,6.25,6.25,0,0,1-.87.26l-1.1.21-1.08.16a5.35,5.35,0,0,1-.7.07c-.34,0-.91.07-1.7.1l-2.55.09-2.58.1c-.82,0-1.37,0-1.69,0a2.85,2.85,0,0,1-.41,0l-.61-.09-.61-.1Z" style="fill:none;stroke:#00754b;stroke-miterlimit:10;stroke-width:0.6481972988514867px"/><path d="M200.4,55.61a6.28,6.28,0,0,1-1.33-2.13,12.4,12.4,0,0,1-.73-2.31c-.06-.25-.14-.7-.23-1.34s-.2-1.32-.31-2.06-.21-1.41-.3-2.05-.16-1.08-.19-1.33c-.16.28-.44.75-.87,1.42s-.87,1.39-1.33,2.15l-1.34,2.16-.86,1.38a8.69,8.69,0,0,1-2.13,2.27,3.68,3.68,0,0,1-3,.49A6.61,6.61,0,0,1,185.61,52a7.82,7.82,0,0,1-1-2.81,10.66,10.66,0,0,1,0-3.09,17.37,17.37,0,0,1,.74-3.09c0-.15.1-.58.19-1.28s.2-1.54.32-2.51.25-2,.38-3.11.23-2.14.34-3.11.21-1.81.31-2.51a8,8,0,0,1,.23-1.28,2.91,2.91,0,0,1,0-.31c0-.17.07-.34.12-.54s.09-.35.12-.52a1.92,1.92,0,0,1,.09-.32.3.3,0,0,1,.12-.21.35.35,0,0,1,.21-.12,8.61,8.61,0,0,1,1.73.59,7.26,7.26,0,0,1,1.8,1.07,2.31,2.31,0,0,1,.9,1.42c.07.54-.26,1.09-1,1.65a8.93,8.93,0,0,0-.63,1.89c-.21.83-.39,1.77-.56,2.81s-.31,2.14-.42,3.3-.19,2.26-.25,3.33-.09,2-.1,2.87a11,11,0,0,0,.15,2l.65-.7a17.18,17.18,0,0,0,3.42-3.8,23,23,0,0,0,3.78-10.57,18.6,18.6,0,0,0-.29-5.62,6.15,6.15,0,0,0,1.41-.26,10.85,10.85,0,0,1,2-.33,4.57,4.57,0,0,1,1.76.19,1.19,1.19,0,0,1,.77,1.29.85.85,0,0,1-.14.34,2.21,2.21,0,0,1-.23.36c0,.15,0,.63-.08,1.42s-.1,1.75-.18,2.86-.17,2.29-.28,3.56-.21,2.44-.3,3.55-.18,2.06-.25,2.86-.12,1.27-.12,1.43-.05.42-.09.63-.14.68-.22,1-.15.74-.23,1.08-.09.43-.12.65-.07.67-.13,1.17-.11,1-.14,1.57a11.22,11.22,0,0,0,0,1.64,3.69,3.69,0,0,0,.35,1.35,1.32,1.32,0,0,0,.82.7,2.09,2.09,0,0,0,1.48-.3l-1.74,1.69s0,0-.11,0a.39.39,0,0,1-.21,0l-.36-.17a2.19,2.19,0,0,1-.3-.16" style="fill:#00754b"/><path d="M200.4,55.61a6.28,6.28,0,0,1-1.33-2.13,12.4,12.4,0,0,1-.73-2.31c-.06-.25-.14-.7-.23-1.34s-.2-1.32-.31-2.06-.21-1.41-.3-2.05-.16-1.08-.19-1.33c-.16.28-.44.75-.87,1.42s-.87,1.39-1.33,2.15l-1.34,2.16-.86,1.38a8.69,8.69,0,0,1-2.13,2.27,3.68,3.68,0,0,1-3,.49A6.61,6.61,0,0,1,185.61,52a7.82,7.82,0,0,1-1-2.81,10.66,10.66,0,0,1,0-3.09,17.37,17.37,0,0,1,.74-3.09c0-.15.1-.58.19-1.28s.2-1.54.32-2.51.25-2,.38-3.11.23-2.14.34-3.11.21-1.81.31-2.51a8,8,0,0,1,.23-1.28,2.91,2.91,0,0,1,0-.31c0-.17.07-.34.12-.54s.09-.35.12-.52a1.92,1.92,0,0,1,.09-.32.3.3,0,0,1,.12-.21.35.35,0,0,1,.21-.12,8.61,8.61,0,0,1,1.73.59,7.26,7.26,0,0,1,1.8,1.07,2.31,2.31,0,0,1,.9,1.42c.07.54-.26,1.09-1,1.65a8.93,8.93,0,0,0-.63,1.89c-.21.83-.39,1.77-.56,2.81s-.31,2.14-.42,3.3-.19,2.26-.25,3.33-.09,2-.1,2.87a11,11,0,0,0,.15,2l.65-.7a17.18,17.18,0,0,0,3.42-3.8,23,23,0,0,0,3.78-10.57,18.6,18.6,0,0,0-.29-5.62,6.15,6.15,0,0,0,1.41-.26,10.85,10.85,0,0,1,2-.33,4.57,4.57,0,0,1,1.76.19,1.19,1.19,0,0,1,.77,1.29.85.85,0,0,1-.14.34,2.21,2.21,0,0,1-.23.36c0,.15,0,.63-.08,1.42s-.1,1.75-.18,2.86-.17,2.29-.28,3.56-.21,2.44-.3,3.55-.18,2.06-.25,2.86-.12,1.27-.12,1.43-.05.42-.09.63-.14.68-.22,1-.15.74-.23,1.08-.09.43-.12.65-.07.67-.13,1.17-.11,1-.14,1.57a11.22,11.22,0,0,0,0,1.64,3.69,3.69,0,0,0,.35,1.35,1.32,1.32,0,0,0,.82.7,2.09,2.09,0,0,0,1.48-.3l-1.74,1.69s0,0-.11,0a.39.39,0,0,1-.21,0l-.36-.17A1.64,1.64,0,0,1,200.4,55.61Z" style="fill:none;stroke:#00754b;stroke-miterlimit:10;stroke-width:0.6481972988514867px"/><path d="M206.48,54a5.26,5.26,0,0,1-.79-.62,10.72,10.72,0,0,1-.8-.85,4.81,4.81,0,0,1-.61-.93,1.8,1.8,0,0,1-.18-1c0-.15,0-.54.11-1.18s.16-1.33.23-2.06.15-1.42.22-2,.11-1,.14-1.17a3,3,0,0,0,0-.73c0-.1.07-.33.33-.67l2.7-9.5a2.83,2.83,0,0,1-.05-.87,2.33,2.33,0,0,1,.19-.65c.1-.22.21-.43.33-.64a5,5,0,0,0,.33-.75c.09-.25.25-.63.49-1.14s.41-.89.53-1.1a9.23,9.23,0,0,0,1.64.44,2.42,2.42,0,0,1,.84.21.9.9,0,0,1,.43.56c.09.28.21.79.37,1.54a6,6,0,0,1,1.08-.53,3.28,3.28,0,0,1,.93-.19,4,4,0,0,1,1,.09l1.41.31a2.9,2.9,0,0,1,2,1.26,7.06,7.06,0,0,1,1,2.31,12.46,12.46,0,0,1,.38,2.65c0,.9,0,1.65,0,2.24,0,1.16-.09,2.25-.16,3.26s-.12,2-.14,3a26.46,26.46,0,0,0,.12,2.95,18.72,18.72,0,0,0,.56,3.06,1.5,1.5,0,0,0,1.27.82,4,4,0,0,0,1.45-.33c.5-.2,1-.42,1.47-.65a1.63,1.63,0,0,1,1.24-.17,5.63,5.63,0,0,0-1.28.94,11.89,11.89,0,0,1-1.22,1,3.21,3.21,0,0,1-1.33.56,2.39,2.39,0,0,1-1.6-.44,3.17,3.17,0,0,1-.35-.29l-.42-.39L220,52c-.13-.13-.19-.22-.19-.28L218,47.22l-1-12.59a1,1,0,0,0-.3-.83.6.6,0,0,0-.56-.1,1.81,1.81,0,0,0-.63.37,3.12,3.12,0,0,0-.52.57c-.06.09-.18.26-.34.51s-.36.52-.54.82l-.52.84c-.16.27-.26.45-.33.54-.53,1.38-1.07,2.74-1.63,4.1s-1.09,2.72-1.61,4.09-1,2.77-1.36,4.17a26.2,26.2,0,0,0-.81,4.31c-.22.31-.45.42-.68.35a2.52,2.52,0,0,1-.69-.36" style="fill:#00754b"/><path d="M206.48,54a5.26,5.26,0,0,1-.79-.62,10.72,10.72,0,0,1-.8-.85,4.81,4.81,0,0,1-.61-.93,1.8,1.8,0,0,1-.18-1c0-.15,0-.54.11-1.18s.16-1.33.23-2.06.15-1.42.22-2,.11-1,.14-1.17a3,3,0,0,0,0-.73c0-.1.07-.33.33-.67l2.7-9.5a2.83,2.83,0,0,1-.05-.87,2.33,2.33,0,0,1,.19-.65c.1-.22.21-.43.33-.64a5,5,0,0,0,.33-.75c.09-.25.25-.63.49-1.14s.41-.89.53-1.1a9.23,9.23,0,0,0,1.64.44,2.42,2.42,0,0,1,.84.21.9.9,0,0,1,.43.56c.09.28.21.79.37,1.54a6,6,0,0,1,1.08-.53,3.28,3.28,0,0,1,.93-.19,4,4,0,0,1,1,.09l1.41.31a2.9,2.9,0,0,1,2,1.26,7.06,7.06,0,0,1,1,2.31,12.46,12.46,0,0,1,.38,2.65c0,.9,0,1.65,0,2.24,0,1.16-.09,2.25-.16,3.26s-.12,2-.14,3a26.46,26.46,0,0,0,.12,2.95,18.72,18.72,0,0,0,.56,3.06,1.5,1.5,0,0,0,1.27.82,4,4,0,0,0,1.45-.33c.5-.2,1-.42,1.47-.65a1.63,1.63,0,0,1,1.24-.17,5.63,5.63,0,0,0-1.28.94,11.89,11.89,0,0,1-1.22,1,3.21,3.21,0,0,1-1.33.56,2.39,2.39,0,0,1-1.6-.44,3.17,3.17,0,0,1-.35-.29l-.42-.39L220,52c-.13-.13-.19-.22-.19-.28L218,47.22l-1-12.59a1,1,0,0,0-.3-.83.6.6,0,0,0-.56-.1,1.81,1.81,0,0,0-.63.37,3.12,3.12,0,0,0-.52.57c-.06.09-.18.26-.34.51s-.36.52-.54.82l-.52.84c-.16.27-.26.45-.33.54-.53,1.38-1.07,2.74-1.63,4.1s-1.09,2.72-1.61,4.09-1,2.77-1.36,4.17a26.2,26.2,0,0,0-.81,4.31c-.22.31-.45.42-.68.35A2.52,2.52,0,0,1,206.48,54Z" style="fill:none;stroke:#00754b;stroke-miterlimit:10;stroke-width:0.6481972988514867px"/><path d="M232.51,54.51a7.25,7.25,0,0,1-1.92-1.61,6.6,6.6,0,0,1-1.08-1.85A9.25,9.25,0,0,1,229,48.9c-.09-.78-.17-1.63-.23-2.57.18-1.28.37-2.55.56-3.82s.4-2.5.67-3.71a37,37,0,0,1,1-3.61,20.57,20.57,0,0,1,1.52-3.51,3.75,3.75,0,0,1,2.15.05,9.14,9.14,0,0,1,1.92,1,1.56,1.56,0,0,1,.87,1.52,5.73,5.73,0,0,1-.59,2q-.51,1.08-1.14,2.13a7,7,0,0,0-.82,1.81c-.09.34-.22.92-.37,1.73s-.33,1.67-.51,2.6-.36,1.78-.52,2.57-.24,1.33-.27,1.61a2,2,0,0,0-.08.54c0,.27,0,.55,0,.85s0,.56,0,.81a2.25,2.25,0,0,0,.08.52,5.35,5.35,0,0,0,.67-1.64,12.78,12.78,0,0,0,.3-1.73v5.43c0,.62-.16,1-.47,1.21a1.13,1.13,0,0,1-1.21-.18m2.6-29.95a5.8,5.8,0,0,1-2-2.37c-.17-.61-.08-1,.28-1.24a1.83,1.83,0,0,1,1.5,0,3.17,3.17,0,0,1,1.62,1.24,3.55,3.55,0,0,1,.09.47,5.81,5.81,0,0,1,.05.72,6,6,0,0,1-.05.73,3.73,3.73,0,0,1-.09.46.28.28,0,0,1-.12.21c-.08.08-.15.13-.21.12a2.08,2.08,0,0,1-.54-.11,1.51,1.51,0,0,1-.49-.21" style="fill:#00754b"/><path d="M232.51,54.51a7.25,7.25,0,0,1-1.92-1.61,6.6,6.6,0,0,1-1.08-1.85A9.25,9.25,0,0,1,229,48.9c-.09-.78-.17-1.63-.23-2.57.18-1.28.37-2.55.56-3.82s.4-2.5.67-3.71a37,37,0,0,1,1-3.61,20.57,20.57,0,0,1,1.52-3.51,3.75,3.75,0,0,1,2.15.05,9.14,9.14,0,0,1,1.92,1,1.56,1.56,0,0,1,.87,1.52,5.73,5.73,0,0,1-.59,2q-.51,1.08-1.14,2.13a7,7,0,0,0-.82,1.81c-.09.34-.22.92-.37,1.73s-.33,1.67-.51,2.6-.36,1.78-.52,2.57-.24,1.33-.27,1.61a2,2,0,0,0-.08.54c0,.27,0,.55,0,.85s0,.56,0,.81a2.25,2.25,0,0,0,.08.52,5.35,5.35,0,0,0,.67-1.64,12.78,12.78,0,0,0,.3-1.73v5.43c0,.62-.16,1-.47,1.21S233,54.82,232.51,54.51Zm2.6-29.95a5.79,5.79,0,0,1-2-2.36c-.17-.61-.08-1,.28-1.24a1.86,1.86,0,0,1,1.5,0,3.17,3.17,0,0,1,1.62,1.24,2.57,2.57,0,0,1,.08.47,4.41,4.41,0,0,1,0,1.45,2.43,2.43,0,0,1-.08.47.4.4,0,0,1-.12.21.33.33,0,0,1-.21.12,2.36,2.36,0,0,1-.54-.12,1.08,1.08,0,0,1-.49-.21Z" style="fill:none;stroke:#00754b;stroke-miterlimit:10;stroke-width:0.6481972988514867px"/><path d="M253.71,55.34c-.29-.9-.49-1.5-.62-1.78s-.2-.4-.23-.37,0,.14,0,.33a1.24,1.24,0,0,0,0,.33s0-.11,0-.4,0-.92-.09-1.86a.88.88,0,0,0-.07-.48,2.15,2.15,0,0,1-.12-.5c0-.15,0-.24-.09-.25s-.11-.1-.14-.26a11,11,0,0,0-1.31,1.24c-.4.46-.83.89-1.26,1.31s-.89.83-1.36,1.22a6.88,6.88,0,0,1-3.74,1.41,3.73,3.73,0,0,1-2.29-.82c-.35-.28-.73-.58-1.15-.89a13.54,13.54,0,0,1-1.24-1,11.69,11.69,0,0,1-1.13-1.2,4.83,4.83,0,0,1-.79-1.33,11.13,11.13,0,0,1,.28-4.3,21.11,21.11,0,0,1,1.68-4.49,32.16,32.16,0,0,1,2.66-4.4,43.38,43.38,0,0,1,3.25-4,46.52,46.52,0,0,1,3.46-3.42,29.47,29.47,0,0,1,3.25-2.53,5.24,5.24,0,0,0,.47.28l.67.4c.23.14.47.28.68.42s.38.24.47.31l.19-.71V17.39a3.07,3.07,0,0,1-.4-1.73,1.21,1.21,0,0,1,.6-.91,2.08,2.08,0,0,1,1.23-.16,3.27,3.27,0,0,1,1.4.55,4,4,0,0,1,1.17,1.29,4.13,4.13,0,0,1,.54,1.94c0,.16,0,.51,0,1.05s-.06,1.2-.08,1.95,0,1.54,0,2.38,0,1.65-.05,2.39,0,1.4,0,1.94a9.26,9.26,0,0,1-.07,1.05.57.57,0,0,1,0,.34.76.76,0,0,1-.17.32l-1.11,9.5.48,2.38a1.84,1.84,0,0,0-1.13.61,2.64,2.64,0,0,0-.51,1.1,5.5,5.5,0,0,0-.14,1.34c0,.47,0,.92-.05,1.35a.2.2,0,0,0,0,.17.37.37,0,0,0,.07.16L256,48l0,.33.28,1.4.05.33-1,3c.13.16.12.4,0,.73a4.48,4.48,0,0,1-.5.94,2.29,2.29,0,0,1-.67.68c-.25.15-.44.12-.56-.1m-10.39-3.22s0,.08,0,.16a.36.36,0,0,0,.07.17c.28.08.69-.07,1.22-.48a11.45,11.45,0,0,0,1.75-1.73c.64-.74,1.33-1.64,2.06-2.67s1.44-2.1,2.13-3.22,1.33-2.28,1.93-3.45,1.13-2.27,1.55-3.3a15.56,15.56,0,0,0,.88-2.76,3.6,3.6,0,0,0,0-1.87h-1.69a1.89,1.89,0,0,0-.53.31c-.3.2-.63.44-1,.73s-.75.57-1.11.88-.65.58-.87.8a7.76,7.76,0,0,0-1.28,1.73c-.45.79-.91,1.69-1.38,2.72s-.92,2.12-1.35,3.27-.83,2.28-1.17,3.37-.62,2.11-.84,3a12.57,12.57,0,0,0-.37,2.29" style="fill:#00754b"/><path d="M253.71,55.34c-.29-.9-.49-1.5-.62-1.78s-.2-.4-.23-.37,0,.14,0,.33a1.24,1.24,0,0,0,0,.33s0-.11,0-.4,0-.92-.09-1.86a.88.88,0,0,0-.07-.48,2.15,2.15,0,0,1-.12-.5c0-.15,0-.24-.09-.25s-.11-.1-.14-.26a11,11,0,0,0-1.31,1.24c-.4.46-.83.89-1.26,1.31s-.89.83-1.36,1.22a6.88,6.88,0,0,1-3.74,1.41,3.73,3.73,0,0,1-2.29-.82c-.35-.28-.73-.58-1.15-.89a13.54,13.54,0,0,1-1.24-1,11.69,11.69,0,0,1-1.13-1.2,4.83,4.83,0,0,1-.79-1.33,11.13,11.13,0,0,1,.28-4.3,21.11,21.11,0,0,1,1.68-4.49,32.16,32.16,0,0,1,2.66-4.4,43.38,43.38,0,0,1,3.25-4,46.52,46.52,0,0,1,3.46-3.42,29.47,29.47,0,0,1,3.25-2.53,5.24,5.24,0,0,0,.47.28l.67.4c.23.14.47.28.68.42s.38.24.47.31l.19-.71V17.39a3.07,3.07,0,0,1-.4-1.73,1.21,1.21,0,0,1,.6-.91,2.08,2.08,0,0,1,1.23-.16,3.27,3.27,0,0,1,1.4.55,4,4,0,0,1,1.17,1.29,4.13,4.13,0,0,1,.54,1.94c0,.16,0,.51,0,1.05s-.06,1.2-.08,1.95,0,1.54,0,2.38,0,1.65-.05,2.39,0,1.4,0,1.94a9.26,9.26,0,0,1-.07,1.05.57.57,0,0,1,0,.34.76.76,0,0,1-.17.32l-1.11,9.5.48,2.38a1.84,1.84,0,0,0-1.13.61,2.64,2.64,0,0,0-.51,1.1,5.5,5.5,0,0,0-.14,1.34c0,.47,0,.92-.05,1.35a.2.2,0,0,0,0,.17.37.37,0,0,0,.07.16L256,48l0,.33.28,1.4.05.33-1,3c.13.16.12.4,0,.73a4.48,4.48,0,0,1-.5.94,2.29,2.29,0,0,1-.67.68C254,55.59,253.83,55.56,253.71,55.34Zm-10.39-3.22s0,.08,0,.16a.36.36,0,0,0,.07.17c.28.08.69-.07,1.22-.48a11.45,11.45,0,0,0,1.75-1.73c.64-.74,1.33-1.64,2.06-2.67s1.44-2.1,2.13-3.22,1.33-2.28,1.93-3.45,1.13-2.27,1.55-3.3a15.56,15.56,0,0,0,.88-2.76,3.7,3.7,0,0,0,0-1.87h-1.69a1.94,1.94,0,0,0-.54.31c-.29.2-.62.44-1,.73s-.74.57-1.1.88-.65.58-.87.8a7.46,7.46,0,0,0-1.28,1.73c-.45.79-.92,1.69-1.38,2.72s-.92,2.12-1.35,3.27-.83,2.28-1.17,3.37-.62,2.11-.84,3a11.89,11.89,0,0,0-.37,2.29Z" style="fill:none;stroke:#00754b;stroke-miterlimit:10;stroke-width:0.6481972988514867px"/><path d="M264.19,53.23c-.07-.07-.23-.21-.49-.42l-.55-.43a20.86,20.86,0,0,1-1.26-5.28,23.66,23.66,0,0,1,0-5.32,20.9,20.9,0,0,1,1.19-5,17.25,17.25,0,0,1,2.27-4.28,14,14,0,0,1,3.15-3.18,9.83,9.83,0,0,1,3.93-1.72,3.26,3.26,0,0,1,.33.31.16.16,0,0,1,0,.12l-.1.14c0,.06,0,.17,0,.32a24.24,24.24,0,0,0,1.15,2.23c.39.67.75,1.35,1.08,2a22,22,0,0,1,.89,2.2,11.51,11.51,0,0,1,.53,2.66,11.22,11.22,0,0,1,.06,1.15c0,.52,0,1.06-.05,1.64s-.07,1.13-.12,1.64a4.88,4.88,0,0,1-.21,1.19,26.47,26.47,0,0,1-1.12,2.7,24.63,24.63,0,0,1-1.63,2.87,20.48,20.48,0,0,1-2,2.6A10.51,10.51,0,0,1,269,53.31a4.85,4.85,0,0,1-2.42.75,3.67,3.67,0,0,1-2.41-.84m0-2.57a1.74,1.74,0,0,0,1.88.35,5.11,5.11,0,0,0,1.77-1.24,26.21,26.21,0,0,0,2.89-3.67,14.42,14.42,0,0,0,1.84-4.17,10.28,10.28,0,0,0,.14-4.45,10.91,10.91,0,0,0-2.26-4.6c-.09-.1-.28,0-.58.23a8.25,8.25,0,0,0-.93.94c-.33.37-.62.75-.89,1.12s-.44.63-.54.75-.3.47-.51.85-.43.74-.63,1.1-.39.68-.57,1-.27.47-.3.54a3.21,3.21,0,0,0-.26.67c-.11.37-.23.75-.37,1.17s-.27.83-.39,1.2-.22.66-.29.84A13.85,13.85,0,0,0,263.9,45c-.06.62-.1,1.25-.11,1.89s0,1.26,0,1.88,0,1.11.08,1.51c0,0,.08.11.16.22a1.46,1.46,0,0,0,.16.21" style="fill:#00754b"/><path d="M264.19,53.23c-.07-.07-.23-.21-.49-.42l-.55-.43a20.86,20.86,0,0,1-1.26-5.28,23.66,23.66,0,0,1,0-5.32,20.9,20.9,0,0,1,1.19-5,17.25,17.25,0,0,1,2.27-4.28,14,14,0,0,1,3.15-3.18,9.83,9.83,0,0,1,3.93-1.72,3.26,3.26,0,0,1,.33.31.16.16,0,0,1,0,.12l-.1.14c0,.06,0,.17,0,.32a24.24,24.24,0,0,0,1.15,2.23c.39.67.75,1.35,1.08,2a22,22,0,0,1,.89,2.2,11.51,11.51,0,0,1,.53,2.66,11.22,11.22,0,0,1,.06,1.15c0,.52,0,1.06-.05,1.64s-.07,1.13-.12,1.64a4.88,4.88,0,0,1-.21,1.19,26.47,26.47,0,0,1-1.12,2.7,24.63,24.63,0,0,1-1.63,2.87,20.48,20.48,0,0,1-2,2.6A10.51,10.51,0,0,1,269,53.31a4.85,4.85,0,0,1-2.42.75A3.67,3.67,0,0,1,264.19,53.23Zm0-2.58a1.7,1.7,0,0,0,1.87.35,5,5,0,0,0,1.77-1.24,26.21,26.21,0,0,0,2.89-3.67,14.42,14.42,0,0,0,1.84-4.17,10.28,10.28,0,0,0,.14-4.45,10.91,10.91,0,0,0-2.26-4.6c-.09-.1-.28,0-.58.23a8.25,8.25,0,0,0-.93.94c-.33.37-.62.75-.89,1.12s-.44.63-.54.75-.3.47-.51.85-.43.74-.63,1.1-.39.68-.57,1-.27.47-.3.54a3.21,3.21,0,0,0-.26.67c-.11.37-.23.75-.37,1.17s-.27.83-.39,1.2-.22.66-.29.84A13.85,13.85,0,0,0,263.9,45c-.06.62-.1,1.25-.11,1.89s0,1.26,0,1.88,0,1.11.08,1.51c0,0,.08.11.16.22a1,1,0,0,0,.16.2Z" style="fill:none;stroke:#00754b;stroke-miterlimit:10;stroke-width:0.6481972988514867px"/><path d="M278.41,55a.26.26,0,0,1,0-.19.26.26,0,0,1,.05-.19,5.2,5.2,0,0,1,.35-.6,4.65,4.65,0,0,1,.34-.52l5.05-5.15a18.31,18.31,0,0,0,2.25-.92c.91-.41,1.83-.89,2.79-1.43a27.73,27.73,0,0,0,2.64-1.65,8.54,8.54,0,0,0,1.82-1.68s0-.08,0-.18a.29.29,0,0,0,0-.18,1.15,1.15,0,0,0-.33-.21.93.93,0,0,0-.33-.12c-.15,0-.48-.06-1-.12l-1.7-.18c-.64-.07-1.34-.15-2.06-.21l-2.09-.19c-.66,0-1.22-.11-1.71-.16s-.81-.09-1-.12h-.37a5.23,5.23,0,0,1-.68-.07l-1.05-.11c-.38,0-.72-.07-1-.12a4.78,4.78,0,0,0-.65-.07,5.1,5.1,0,0,1-.62-1.64,12.65,12.65,0,0,1-.21-1.94c0-.67,0-1.31,0-1.92S279,34,279,33.56a2.51,2.51,0,0,1,.64-1.13,8.42,8.42,0,0,1,1.05-.93,9.44,9.44,0,0,1,1.15-.75c.39-.22.7-.41,1-.57a34.5,34.5,0,0,1,3.7-1.85A27.17,27.17,0,0,1,290.63,27a20.21,20.21,0,0,1,4.24-.57,13.34,13.34,0,0,1,4,.52,12.88,12.88,0,0,1,.1,2.24,3.34,3.34,0,0,1-.79,2.16,5.71,5.71,0,0,0-.68.05c-.33,0-.69.06-1.06.12s-.71.08-1,.11l-.65.09c-.19,0-.51.13-1,.26l-1.45.45-1.42.44c-.45.14-.76.24-.94.31-.5.18-1.1.42-1.78.7s-1.39.6-2.13,1A13.9,13.9,0,0,0,284,36a6.41,6.41,0,0,0-1.56,1.6.26.26,0,0,0-.05.19.24.24,0,0,0,.05.18,7.92,7.92,0,0,0,2.36.52l3.74.42q2,.23,4.05.6a10.68,10.68,0,0,1,3.3,1.09,2.7,2.7,0,0,1,1.48,1.93c.12.79-.33,1.81-1.36,3.06a21.1,21.1,0,0,1-3.51,3.3,31.65,31.65,0,0,1-3.9,2.47q-2,1.06-4.21,2t-4.33,1.93a5.65,5.65,0,0,1-.91.11.74.74,0,0,1-.77-.49" style="fill:#00754b"/><path d="M278.41,55a.26.26,0,0,1,0-.19.26.26,0,0,1,.05-.19,5.2,5.2,0,0,1,.35-.6,4.65,4.65,0,0,1,.34-.52l5.05-5.15a18.31,18.31,0,0,0,2.25-.92c.91-.41,1.83-.89,2.79-1.43a27.73,27.73,0,0,0,2.64-1.65,8.54,8.54,0,0,0,1.82-1.68s0-.08,0-.18a.29.29,0,0,0,0-.18,1.15,1.15,0,0,0-.33-.21.93.93,0,0,0-.33-.12c-.15,0-.48-.06-1-.12l-1.7-.18c-.64-.07-1.34-.15-2.06-.21l-2.09-.19c-.66,0-1.22-.11-1.71-.16s-.81-.09-1-.12h-.37a5.23,5.23,0,0,1-.68-.07l-1.05-.11c-.38,0-.72-.07-1-.12a4.78,4.78,0,0,0-.65-.07,5.1,5.1,0,0,1-.62-1.64,12.65,12.65,0,0,1-.21-1.94c0-.67,0-1.31,0-1.92S279,34,279,33.56a2.51,2.51,0,0,1,.64-1.13,8.42,8.42,0,0,1,1.05-.93,9.44,9.44,0,0,1,1.15-.75c.39-.22.7-.41,1-.57a34.5,34.5,0,0,1,3.7-1.85A27.17,27.17,0,0,1,290.63,27a20.21,20.21,0,0,1,4.24-.57,13.34,13.34,0,0,1,4,.52,12.88,12.88,0,0,1,.1,2.24,3.34,3.34,0,0,1-.79,2.16,5.71,5.71,0,0,0-.68.05c-.33,0-.69.06-1.06.12s-.71.08-1,.11l-.65.09c-.19,0-.51.13-1,.26l-1.45.45-1.42.44c-.45.14-.76.24-.94.31-.5.18-1.1.42-1.78.7s-1.39.6-2.13,1A13.9,13.9,0,0,0,284,36a6.41,6.41,0,0,0-1.56,1.6.26.26,0,0,0-.05.19.24.24,0,0,0,.05.18,7.92,7.92,0,0,0,2.36.52l3.74.42q2,.23,4.05.6a10.68,10.68,0,0,1,3.3,1.09,2.7,2.7,0,0,1,1.48,1.93c.12.79-.33,1.81-1.36,3.06a21.1,21.1,0,0,1-3.51,3.3,31.65,31.65,0,0,1-3.9,2.47q-2,1.06-4.21,2t-4.33,1.93a5.65,5.65,0,0,1-.91.11A.76.76,0,0,1,278.41,55Z" style="fill:none;stroke:#00754b;stroke-miterlimit:10;stroke-width:0.6481972988514867px"/></svg>